<mxfile host="Electron" agent="Mozilla/5.0 (Windows NT 10.0; Win64; x64) AppleWebKit/537.36 (KHTML, like Gecko) draw.io/27.0.5 Chrome/134.0.6998.205 Electron/35.3.0 Safari/537.36" version="27.0.5" pages="2">
  <diagram name="FUNCIONAL" id="gYIJNVyBrI_II_At4Y5p">
    <mxGraphModel dx="6466" dy="3235" grid="0" gridSize="10" guides="0" tooltips="1" connect="1" arrows="1" fold="1" page="0" pageScale="1" pageWidth="827" pageHeight="1169" math="0" shadow="0">
      <root>
        <mxCell id="0" />
        <mxCell id="1" parent="0" />
        <mxCell id="37o7VVHi27gu3IQY9aIR-49" style="edgeStyle=orthogonalEdgeStyle;rounded=0;orthogonalLoop=1;jettySize=auto;html=1;exitX=0.5;exitY=1;exitDx=0;exitDy=0;fontFamily=Helvetica;fontSize=12;fontColor=default;" parent="1" source="37o7VVHi27gu3IQY9aIR-4" target="37o7VVHi27gu3IQY9aIR-5" edge="1">
          <mxGeometry relative="1" as="geometry" />
        </mxCell>
        <mxCell id="37o7VVHi27gu3IQY9aIR-4" value="Início" style="ellipse;whiteSpace=wrap;html=1;" parent="1" vertex="1">
          <mxGeometry x="-321" width="120" height="80" as="geometry" />
        </mxCell>
        <mxCell id="37o7VVHi27gu3IQY9aIR-9" style="edgeStyle=orthogonalEdgeStyle;rounded=0;orthogonalLoop=1;jettySize=auto;html=1;exitX=0;exitY=0.5;exitDx=0;exitDy=0;entryX=0.5;entryY=0;entryDx=0;entryDy=0;" parent="1" source="37o7VVHi27gu3IQY9aIR-5" target="37o7VVHi27gu3IQY9aIR-8" edge="1">
          <mxGeometry relative="1" as="geometry" />
        </mxCell>
        <mxCell id="37o7VVHi27gu3IQY9aIR-5" value="Possui conta?" style="rhombus;whiteSpace=wrap;html=1;" parent="1" vertex="1">
          <mxGeometry x="-306" y="128" width="90" height="80" as="geometry" />
        </mxCell>
        <mxCell id="37o7VVHi27gu3IQY9aIR-12" style="edgeStyle=orthogonalEdgeStyle;rounded=0;orthogonalLoop=1;jettySize=auto;html=1;exitX=0.5;exitY=1;exitDx=0;exitDy=0;entryX=0.5;entryY=0;entryDx=0;entryDy=0;" parent="1" source="37o7VVHi27gu3IQY9aIR-6" target="37o7VVHi27gu3IQY9aIR-11" edge="1">
          <mxGeometry relative="1" as="geometry" />
        </mxCell>
        <mxCell id="37o7VVHi27gu3IQY9aIR-6" value="Logar com Credenciais" style="rounded=1;whiteSpace=wrap;html=1;" parent="1" vertex="1">
          <mxGeometry x="-316" y="240" width="120" height="60" as="geometry" />
        </mxCell>
        <mxCell id="37o7VVHi27gu3IQY9aIR-8" value="Criar Conta" style="rounded=1;whiteSpace=wrap;html=1;" parent="1" vertex="1">
          <mxGeometry x="-501" y="250" width="120" height="60" as="geometry" />
        </mxCell>
        <mxCell id="37o7VVHi27gu3IQY9aIR-16" style="edgeStyle=orthogonalEdgeStyle;rounded=0;orthogonalLoop=1;jettySize=auto;html=1;exitX=0.5;exitY=1;exitDx=0;exitDy=0;entryX=0.5;entryY=0;entryDx=0;entryDy=0;" parent="1" source="37o7VVHi27gu3IQY9aIR-11" target="37o7VVHi27gu3IQY9aIR-15" edge="1">
          <mxGeometry relative="1" as="geometry" />
        </mxCell>
        <mxCell id="37o7VVHi27gu3IQY9aIR-11" value="Ver Saldo" style="rounded=1;whiteSpace=wrap;html=1;" parent="1" vertex="1">
          <mxGeometry x="-316" y="340" width="120" height="60" as="geometry" />
        </mxCell>
        <mxCell id="37o7VVHi27gu3IQY9aIR-15" value="Iniciar Transferência" style="rounded=0;whiteSpace=wrap;html=1;" parent="1" vertex="1">
          <mxGeometry x="-316" y="450" width="120" height="60" as="geometry" />
        </mxCell>
        <mxCell id="37o7VVHi27gu3IQY9aIR-23" style="edgeStyle=orthogonalEdgeStyle;rounded=0;orthogonalLoop=1;jettySize=auto;html=1;exitX=0;exitY=0.5;exitDx=0;exitDy=0;entryX=0.91;entryY=0.443;entryDx=0;entryDy=0;entryPerimeter=0;" parent="1" source="37o7VVHi27gu3IQY9aIR-17" target="37o7VVHi27gu3IQY9aIR-26" edge="1">
          <mxGeometry relative="1" as="geometry">
            <mxPoint x="-341" y="590" as="targetPoint" />
          </mxGeometry>
        </mxCell>
        <mxCell id="37o7VVHi27gu3IQY9aIR-17" value="Possui Saldo Suficiente?" style="rhombus;whiteSpace=wrap;html=1;" parent="1" vertex="1">
          <mxGeometry x="-311" y="665" width="100" height="90" as="geometry" />
        </mxCell>
        <mxCell id="37o7VVHi27gu3IQY9aIR-38" style="edgeStyle=orthogonalEdgeStyle;rounded=0;orthogonalLoop=1;jettySize=auto;html=1;exitX=0;exitY=0.5;exitDx=0;exitDy=0;entryX=1;entryY=0.5;entryDx=0;entryDy=0;fontFamily=Helvetica;fontSize=12;fontColor=default;" parent="1" source="37o7VVHi27gu3IQY9aIR-18" target="37o7VVHi27gu3IQY9aIR-37" edge="1">
          <mxGeometry relative="1" as="geometry" />
        </mxCell>
        <mxCell id="37o7VVHi27gu3IQY9aIR-18" value="Destinatário possui conta no Banco?" style="rhombus;whiteSpace=wrap;html=1;" parent="1" vertex="1">
          <mxGeometry x="-306" y="870" width="100" height="110" as="geometry" />
        </mxCell>
        <mxCell id="37o7VVHi27gu3IQY9aIR-64" style="edgeStyle=orthogonalEdgeStyle;rounded=0;orthogonalLoop=1;jettySize=auto;html=1;exitX=0.5;exitY=1;exitDx=0;exitDy=0;entryX=0.5;entryY=0;entryDx=0;entryDy=0;fontFamily=Helvetica;fontSize=12;fontColor=default;" parent="1" source="37o7VVHi27gu3IQY9aIR-24" target="37o7VVHi27gu3IQY9aIR-51" edge="1">
          <mxGeometry relative="1" as="geometry" />
        </mxCell>
        <mxCell id="37o7VVHi27gu3IQY9aIR-24" value="Realizar Transferência" style="rounded=1;whiteSpace=wrap;html=1;arcSize=0;" parent="1" vertex="1">
          <mxGeometry x="-321" y="1010" width="120" height="60" as="geometry" />
        </mxCell>
        <mxCell id="37o7VVHi27gu3IQY9aIR-60" style="edgeStyle=orthogonalEdgeStyle;rounded=0;orthogonalLoop=1;jettySize=auto;html=1;exitX=0;exitY=0.5;exitDx=0;exitDy=0;entryX=0;entryY=0;entryDx=0;entryDy=0;fontFamily=Helvetica;fontSize=12;fontColor=default;" parent="1" source="37o7VVHi27gu3IQY9aIR-26" target="37o7VVHi27gu3IQY9aIR-56" edge="1">
          <mxGeometry relative="1" as="geometry" />
        </mxCell>
        <mxCell id="37o7VVHi27gu3IQY9aIR-26" value="Não Possui Saldo suficiente" style="shape=parallelogram;perimeter=parallelogramPerimeter;whiteSpace=wrap;html=1;fixedSize=1;rounded=0;strokeColor=default;align=center;verticalAlign=middle;fontFamily=Helvetica;fontSize=12;fontColor=default;fillColor=default;" parent="1" vertex="1">
          <mxGeometry x="-511" y="683" width="130" height="60" as="geometry" />
        </mxCell>
        <mxCell id="37o7VVHi27gu3IQY9aIR-28" value="Definir o Valor" style="shape=trapezoid;perimeter=trapezoidPerimeter;whiteSpace=wrap;html=1;fixedSize=1;rounded=0;strokeColor=default;align=center;verticalAlign=middle;fontFamily=Helvetica;fontSize=12;fontColor=default;fillColor=default;direction=west;" parent="1" vertex="1">
          <mxGeometry x="-321" y="560" width="120" height="60" as="geometry" />
        </mxCell>
        <mxCell id="37o7VVHi27gu3IQY9aIR-34" style="edgeStyle=orthogonalEdgeStyle;rounded=0;orthogonalLoop=1;jettySize=auto;html=1;exitX=0.5;exitY=0;exitDx=0;exitDy=0;entryX=0.5;entryY=0;entryDx=0;entryDy=0;fontFamily=Helvetica;fontSize=12;fontColor=default;" parent="1" source="37o7VVHi27gu3IQY9aIR-32" target="37o7VVHi27gu3IQY9aIR-18" edge="1">
          <mxGeometry relative="1" as="geometry" />
        </mxCell>
        <mxCell id="37o7VVHi27gu3IQY9aIR-32" value="Insira dados da Conta Destinatário" style="shape=trapezoid;perimeter=trapezoidPerimeter;whiteSpace=wrap;html=1;fixedSize=1;rounded=0;strokeColor=default;align=center;verticalAlign=middle;fontFamily=Helvetica;fontSize=12;fontColor=default;fillColor=default;direction=west;" parent="1" vertex="1">
          <mxGeometry x="-326" y="780" width="140" height="60" as="geometry" />
        </mxCell>
        <mxCell id="37o7VVHi27gu3IQY9aIR-71" style="edgeStyle=orthogonalEdgeStyle;rounded=0;orthogonalLoop=1;jettySize=auto;html=1;exitX=0;exitY=0.5;exitDx=0;exitDy=0;fontFamily=Helvetica;fontSize=12;fontColor=default;" parent="1" source="37o7VVHi27gu3IQY9aIR-37" edge="1">
          <mxGeometry relative="1" as="geometry">
            <mxPoint x="-631" y="925" as="targetPoint" />
          </mxGeometry>
        </mxCell>
        <mxCell id="37o7VVHi27gu3IQY9aIR-37" value="Não é possível transferir" style="shape=parallelogram;perimeter=parallelogramPerimeter;whiteSpace=wrap;html=1;fixedSize=1;rounded=0;strokeColor=default;align=center;verticalAlign=middle;fontFamily=Helvetica;fontSize=12;fontColor=default;fillColor=default;" parent="1" vertex="1">
          <mxGeometry x="-491" y="895" width="130" height="60" as="geometry" />
        </mxCell>
        <mxCell id="37o7VVHi27gu3IQY9aIR-40" value="Gerar comprovante" style="shape=process;whiteSpace=wrap;html=1;backgroundOutline=1;rounded=0;strokeColor=default;align=center;verticalAlign=middle;fontFamily=Helvetica;fontSize=12;fontColor=default;fillColor=default;" parent="1" vertex="1">
          <mxGeometry x="-311" y="1170" width="120" height="60" as="geometry" />
        </mxCell>
        <mxCell id="37o7VVHi27gu3IQY9aIR-43" value="SIM" style="text;html=1;align=center;verticalAlign=middle;resizable=0;points=[];autosize=1;strokeColor=none;fillColor=none;fontFamily=Helvetica;fontSize=12;fontColor=default;" parent="1" vertex="1">
          <mxGeometry x="-256" y="208" width="40" height="30" as="geometry" />
        </mxCell>
        <mxCell id="37o7VVHi27gu3IQY9aIR-44" value="Não" style="text;html=1;align=center;verticalAlign=middle;resizable=0;points=[];autosize=1;strokeColor=none;fillColor=none;fontFamily=Helvetica;fontSize=12;fontColor=default;" parent="1" vertex="1">
          <mxGeometry x="-411" y="140" width="50" height="30" as="geometry" />
        </mxCell>
        <mxCell id="37o7VVHi27gu3IQY9aIR-45" value="SIM" style="text;html=1;align=center;verticalAlign=middle;resizable=0;points=[];autosize=1;strokeColor=none;fillColor=none;fontFamily=Helvetica;fontSize=12;fontColor=default;" parent="1" vertex="1">
          <mxGeometry x="-241" y="743" width="40" height="30" as="geometry" />
        </mxCell>
        <mxCell id="37o7VVHi27gu3IQY9aIR-46" value="Não" style="text;html=1;align=center;verticalAlign=middle;resizable=0;points=[];autosize=1;strokeColor=none;fillColor=none;fontFamily=Helvetica;fontSize=12;fontColor=default;" parent="1" vertex="1">
          <mxGeometry x="-366" y="683" width="50" height="30" as="geometry" />
        </mxCell>
        <mxCell id="37o7VVHi27gu3IQY9aIR-47" value="SIM" style="text;html=1;align=center;verticalAlign=middle;resizable=0;points=[];autosize=1;strokeColor=none;fillColor=none;fontFamily=Helvetica;fontSize=12;fontColor=default;" parent="1" vertex="1">
          <mxGeometry x="-246" y="970" width="40" height="30" as="geometry" />
        </mxCell>
        <mxCell id="37o7VVHi27gu3IQY9aIR-48" value="Não" style="text;html=1;align=center;verticalAlign=middle;resizable=0;points=[];autosize=1;strokeColor=none;fillColor=none;fontFamily=Helvetica;fontSize=12;fontColor=default;" parent="1" vertex="1">
          <mxGeometry x="-356" y="895" width="50" height="30" as="geometry" />
        </mxCell>
        <mxCell id="37o7VVHi27gu3IQY9aIR-50" style="edgeStyle=orthogonalEdgeStyle;rounded=0;orthogonalLoop=1;jettySize=auto;html=1;exitX=0.5;exitY=1;exitDx=0;exitDy=0;entryX=0.464;entryY=1.026;entryDx=0;entryDy=0;entryPerimeter=0;fontFamily=Helvetica;fontSize=12;fontColor=default;" parent="1" source="37o7VVHi27gu3IQY9aIR-15" target="37o7VVHi27gu3IQY9aIR-28" edge="1">
          <mxGeometry relative="1" as="geometry" />
        </mxCell>
        <mxCell id="37o7VVHi27gu3IQY9aIR-65" style="edgeStyle=orthogonalEdgeStyle;rounded=0;orthogonalLoop=1;jettySize=auto;html=1;exitX=0.5;exitY=1;exitDx=0;exitDy=0;entryX=0.5;entryY=0;entryDx=0;entryDy=0;fontFamily=Helvetica;fontSize=12;fontColor=default;" parent="1" source="37o7VVHi27gu3IQY9aIR-51" target="37o7VVHi27gu3IQY9aIR-40" edge="1">
          <mxGeometry relative="1" as="geometry" />
        </mxCell>
        <mxCell id="37o7VVHi27gu3IQY9aIR-51" value="Validar Transferência" style="rounded=0;whiteSpace=wrap;html=1;strokeColor=default;align=center;verticalAlign=middle;fontFamily=Helvetica;fontSize=12;fontColor=default;fillColor=default;" parent="1" vertex="1">
          <mxGeometry x="-311" y="1090" width="120" height="60" as="geometry" />
        </mxCell>
        <mxCell id="37o7VVHi27gu3IQY9aIR-59" style="edgeStyle=orthogonalEdgeStyle;rounded=0;orthogonalLoop=1;jettySize=auto;html=1;exitX=0;exitY=0.5;exitDx=0;exitDy=0;entryX=0.5;entryY=0;entryDx=0;entryDy=0;fontFamily=Helvetica;fontSize=12;fontColor=default;" parent="1" source="37o7VVHi27gu3IQY9aIR-54" target="37o7VVHi27gu3IQY9aIR-56" edge="1">
          <mxGeometry relative="1" as="geometry" />
        </mxCell>
        <mxCell id="37o7VVHi27gu3IQY9aIR-54" value="Finalizar Transferência" style="rounded=0;whiteSpace=wrap;html=1;strokeColor=default;align=center;verticalAlign=middle;fontFamily=Helvetica;fontSize=12;fontColor=default;fillColor=default;" parent="1" vertex="1">
          <mxGeometry x="-311" y="1290" width="120" height="60" as="geometry" />
        </mxCell>
        <mxCell id="37o7VVHi27gu3IQY9aIR-56" value="FIM" style="ellipse;whiteSpace=wrap;html=1;aspect=fixed;rounded=0;strokeColor=default;align=center;verticalAlign=middle;fontFamily=Helvetica;fontSize=12;fontColor=default;fillColor=default;" parent="1" vertex="1">
          <mxGeometry x="-641" y="1370" width="80" height="80" as="geometry" />
        </mxCell>
        <mxCell id="37o7VVHi27gu3IQY9aIR-62" style="edgeStyle=orthogonalEdgeStyle;rounded=0;orthogonalLoop=1;jettySize=auto;html=1;exitX=0.5;exitY=1;exitDx=0;exitDy=0;entryX=0.531;entryY=1.074;entryDx=0;entryDy=0;entryPerimeter=0;fontFamily=Helvetica;fontSize=12;fontColor=default;" parent="1" source="37o7VVHi27gu3IQY9aIR-17" target="37o7VVHi27gu3IQY9aIR-32" edge="1">
          <mxGeometry relative="1" as="geometry" />
        </mxCell>
        <mxCell id="37o7VVHi27gu3IQY9aIR-63" style="edgeStyle=orthogonalEdgeStyle;rounded=0;orthogonalLoop=1;jettySize=auto;html=1;exitX=0.5;exitY=1;exitDx=0;exitDy=0;entryX=0.544;entryY=0;entryDx=0;entryDy=0;entryPerimeter=0;fontFamily=Helvetica;fontSize=12;fontColor=default;" parent="1" source="37o7VVHi27gu3IQY9aIR-18" target="37o7VVHi27gu3IQY9aIR-24" edge="1">
          <mxGeometry relative="1" as="geometry" />
        </mxCell>
        <mxCell id="37o7VVHi27gu3IQY9aIR-66" style="edgeStyle=orthogonalEdgeStyle;rounded=0;orthogonalLoop=1;jettySize=auto;html=1;exitX=0.5;exitY=1;exitDx=0;exitDy=0;entryX=0.501;entryY=-0.055;entryDx=0;entryDy=0;entryPerimeter=0;fontFamily=Helvetica;fontSize=12;fontColor=default;" parent="1" source="37o7VVHi27gu3IQY9aIR-40" target="37o7VVHi27gu3IQY9aIR-54" edge="1">
          <mxGeometry relative="1" as="geometry" />
        </mxCell>
        <mxCell id="37o7VVHi27gu3IQY9aIR-67" style="edgeStyle=orthogonalEdgeStyle;rounded=0;orthogonalLoop=1;jettySize=auto;html=1;exitX=0.5;exitY=1;exitDx=0;exitDy=0;entryX=0.448;entryY=-0.012;entryDx=0;entryDy=0;entryPerimeter=0;fontFamily=Helvetica;fontSize=12;fontColor=default;" parent="1" source="37o7VVHi27gu3IQY9aIR-5" target="37o7VVHi27gu3IQY9aIR-6" edge="1">
          <mxGeometry relative="1" as="geometry" />
        </mxCell>
        <mxCell id="37o7VVHi27gu3IQY9aIR-69" style="edgeStyle=orthogonalEdgeStyle;rounded=0;orthogonalLoop=1;jettySize=auto;html=1;exitX=1;exitY=0.25;exitDx=0;exitDy=0;entryX=0.042;entryY=0.417;entryDx=0;entryDy=0;entryPerimeter=0;fontFamily=Helvetica;fontSize=12;fontColor=default;" parent="1" source="37o7VVHi27gu3IQY9aIR-8" target="37o7VVHi27gu3IQY9aIR-6" edge="1">
          <mxGeometry relative="1" as="geometry" />
        </mxCell>
        <mxCell id="37o7VVHi27gu3IQY9aIR-70" style="edgeStyle=orthogonalEdgeStyle;rounded=0;orthogonalLoop=1;jettySize=auto;html=1;exitX=0.5;exitY=0;exitDx=0;exitDy=0;entryX=0.499;entryY=-0.056;entryDx=0;entryDy=0;entryPerimeter=0;fontFamily=Helvetica;fontSize=12;fontColor=default;" parent="1" source="37o7VVHi27gu3IQY9aIR-28" target="37o7VVHi27gu3IQY9aIR-17" edge="1">
          <mxGeometry relative="1" as="geometry" />
        </mxCell>
        <mxCell id="iYzIepz9ZAn4X_LT2Ltt-5" value="Visão&amp;nbsp;&lt;span style=&quot;background-color: transparent; color: light-dark(rgb(0, 0, 0), rgb(255, 255, 255));&quot;&gt;Macro&lt;/span&gt;" style="swimlane;childLayout=stackLayout;resizeParent=1;resizeParentMax=0;horizontal=1;startSize=20;horizontalStack=0;html=1;" parent="1" vertex="1">
          <mxGeometry x="-2360" y="160" width="1670" height="402" as="geometry" />
        </mxCell>
        <mxCell id="iYzIepz9ZAn4X_LT2Ltt-6" value="Login" style="swimlane;startSize=30;horizontal=0;html=1;fillColor=#0050ef;fontColor=#ffffff;strokeColor=#001DBC;" parent="iYzIepz9ZAn4X_LT2Ltt-5" vertex="1">
          <mxGeometry y="20" width="1670" height="120" as="geometry" />
        </mxCell>
        <mxCell id="iYzIepz9ZAn4X_LT2Ltt-16" value="" style="edgeStyle=orthogonalEdgeStyle;rounded=0;orthogonalLoop=1;jettySize=auto;html=1;" parent="iYzIepz9ZAn4X_LT2Ltt-6" source="iYzIepz9ZAn4X_LT2Ltt-10" target="iYzIepz9ZAn4X_LT2Ltt-11" edge="1">
          <mxGeometry relative="1" as="geometry" />
        </mxCell>
        <mxCell id="iYzIepz9ZAn4X_LT2Ltt-10" value="" style="shape=actor;whiteSpace=wrap;html=1;" parent="iYzIepz9ZAn4X_LT2Ltt-6" vertex="1">
          <mxGeometry x="67" y="28" width="40" height="60" as="geometry" />
        </mxCell>
        <mxCell id="iYzIepz9ZAn4X_LT2Ltt-30" value="" style="edgeStyle=orthogonalEdgeStyle;rounded=0;orthogonalLoop=1;jettySize=auto;html=1;" parent="iYzIepz9ZAn4X_LT2Ltt-6" source="iYzIepz9ZAn4X_LT2Ltt-11" target="iYzIepz9ZAn4X_LT2Ltt-27" edge="1">
          <mxGeometry relative="1" as="geometry" />
        </mxCell>
        <mxCell id="iYzIepz9ZAn4X_LT2Ltt-11" value="LOGIN" style="shape=manualInput;whiteSpace=wrap;html=1;" parent="iYzIepz9ZAn4X_LT2Ltt-6" vertex="1">
          <mxGeometry x="177" y="18" width="80" height="80" as="geometry" />
        </mxCell>
        <mxCell id="iYzIepz9ZAn4X_LT2Ltt-27" value="Possui login?" style="strokeWidth=2;html=1;shape=mxgraph.flowchart.decision;whiteSpace=wrap;" parent="iYzIepz9ZAn4X_LT2Ltt-6" vertex="1">
          <mxGeometry x="300" y="8" width="100" height="100" as="geometry" />
        </mxCell>
        <mxCell id="iYzIepz9ZAn4X_LT2Ltt-7" value="Cadastro" style="swimlane;startSize=30;horizontal=0;html=1;fillColor=#d80073;fontColor=#ffffff;strokeColor=#A50040;" parent="iYzIepz9ZAn4X_LT2Ltt-5" vertex="1">
          <mxGeometry y="140" width="1670" height="132" as="geometry" />
        </mxCell>
        <mxCell id="iYzIepz9ZAn4X_LT2Ltt-15" value="FIM" style="strokeWidth=2;html=1;shape=mxgraph.flowchart.terminator;whiteSpace=wrap;" parent="iYzIepz9ZAn4X_LT2Ltt-7" vertex="1">
          <mxGeometry x="1450" y="40" width="100" height="60" as="geometry" />
        </mxCell>
        <mxCell id="iYzIepz9ZAn4X_LT2Ltt-29" value="Cadastrar Conta" style="rounded=1;whiteSpace=wrap;html=1;absoluteArcSize=1;arcSize=14;strokeWidth=2;" parent="iYzIepz9ZAn4X_LT2Ltt-7" vertex="1">
          <mxGeometry x="465" y="10" width="100" height="100" as="geometry" />
        </mxCell>
        <mxCell id="iYzIepz9ZAn4X_LT2Ltt-57" value="SIM" style="text;html=1;align=center;verticalAlign=middle;resizable=0;points=[];autosize=1;strokeColor=none;fillColor=none;" parent="iYzIepz9ZAn4X_LT2Ltt-7" vertex="1">
          <mxGeometry x="294" y="44" width="40" height="30" as="geometry" />
        </mxCell>
        <mxCell id="iYzIepz9ZAn4X_LT2Ltt-56" value="NAO" style="text;html=1;align=center;verticalAlign=middle;resizable=0;points=[];autosize=1;strokeColor=none;fillColor=none;" parent="iYzIepz9ZAn4X_LT2Ltt-7" vertex="1">
          <mxGeometry x="378" y="22" width="50" height="30" as="geometry" />
        </mxCell>
        <mxCell id="iYzIepz9ZAn4X_LT2Ltt-44" value="Dest.Possui conta?" style="strokeWidth=2;html=1;shape=mxgraph.flowchart.decision;whiteSpace=wrap;" parent="iYzIepz9ZAn4X_LT2Ltt-7" vertex="1">
          <mxGeometry x="1174" y="-1" width="100" height="100" as="geometry" />
        </mxCell>
        <mxCell id="iYzIepz9ZAn4X_LT2Ltt-47" style="edgeStyle=orthogonalEdgeStyle;rounded=0;orthogonalLoop=1;jettySize=auto;html=1;exitX=1;exitY=0.5;exitDx=0;exitDy=0;exitPerimeter=0;entryX=0.5;entryY=0;entryDx=0;entryDy=0;entryPerimeter=0;" parent="iYzIepz9ZAn4X_LT2Ltt-7" source="iYzIepz9ZAn4X_LT2Ltt-44" target="iYzIepz9ZAn4X_LT2Ltt-15" edge="1">
          <mxGeometry relative="1" as="geometry" />
        </mxCell>
        <mxCell id="iYzIepz9ZAn4X_LT2Ltt-59" value="NAO" style="text;html=1;align=center;verticalAlign=middle;resizable=0;points=[];autosize=1;strokeColor=none;fillColor=none;" parent="iYzIepz9ZAn4X_LT2Ltt-7" vertex="1">
          <mxGeometry x="1285" y="20" width="50" height="30" as="geometry" />
        </mxCell>
        <mxCell id="iYzIepz9ZAn4X_LT2Ltt-58" value="NAO" style="text;html=1;align=center;verticalAlign=middle;resizable=0;points=[];autosize=1;strokeColor=none;fillColor=none;" parent="iYzIepz9ZAn4X_LT2Ltt-7" vertex="1">
          <mxGeometry x="926" y="56" width="50" height="30" as="geometry" />
        </mxCell>
        <mxCell id="iYzIepz9ZAn4X_LT2Ltt-31" style="edgeStyle=orthogonalEdgeStyle;rounded=0;orthogonalLoop=1;jettySize=auto;html=1;exitX=0.5;exitY=1;exitDx=0;exitDy=0;exitPerimeter=0;entryX=0;entryY=0.5;entryDx=0;entryDy=0;entryPerimeter=0;" parent="iYzIepz9ZAn4X_LT2Ltt-5" source="iYzIepz9ZAn4X_LT2Ltt-27" target="iYzIepz9ZAn4X_LT2Ltt-12" edge="1">
          <mxGeometry relative="1" as="geometry" />
        </mxCell>
        <mxCell id="iYzIepz9ZAn4X_LT2Ltt-34" style="edgeStyle=orthogonalEdgeStyle;rounded=0;orthogonalLoop=1;jettySize=auto;html=1;exitX=0.5;exitY=1;exitDx=0;exitDy=0;entryX=0;entryY=0;entryDx=40;entryDy=0;entryPerimeter=0;" parent="iYzIepz9ZAn4X_LT2Ltt-5" source="iYzIepz9ZAn4X_LT2Ltt-29" target="iYzIepz9ZAn4X_LT2Ltt-12" edge="1">
          <mxGeometry relative="1" as="geometry" />
        </mxCell>
        <mxCell id="iYzIepz9ZAn4X_LT2Ltt-53" style="edgeStyle=orthogonalEdgeStyle;rounded=0;orthogonalLoop=1;jettySize=auto;html=1;exitX=0.5;exitY=1;exitDx=0;exitDy=0;exitPerimeter=0;entryX=0.5;entryY=0.188;entryDx=0;entryDy=0;entryPerimeter=0;" parent="iYzIepz9ZAn4X_LT2Ltt-5" source="iYzIepz9ZAn4X_LT2Ltt-44" target="iYzIepz9ZAn4X_LT2Ltt-52" edge="1">
          <mxGeometry relative="1" as="geometry" />
        </mxCell>
        <mxCell id="iYzIepz9ZAn4X_LT2Ltt-55" style="edgeStyle=orthogonalEdgeStyle;rounded=0;orthogonalLoop=1;jettySize=auto;html=1;exitX=1;exitY=0.5;exitDx=0;exitDy=0;exitPerimeter=0;entryX=0.5;entryY=1;entryDx=0;entryDy=0;entryPerimeter=0;" parent="iYzIepz9ZAn4X_LT2Ltt-5" source="iYzIepz9ZAn4X_LT2Ltt-24" target="iYzIepz9ZAn4X_LT2Ltt-15" edge="1">
          <mxGeometry relative="1" as="geometry" />
        </mxCell>
        <mxCell id="iYzIepz9ZAn4X_LT2Ltt-62" style="edgeStyle=orthogonalEdgeStyle;rounded=0;orthogonalLoop=1;jettySize=auto;html=1;exitX=1;exitY=0.5;exitDx=0;exitDy=0;entryX=0;entryY=0.5;entryDx=0;entryDy=0;entryPerimeter=0;" parent="iYzIepz9ZAn4X_LT2Ltt-5" source="iYzIepz9ZAn4X_LT2Ltt-42" target="iYzIepz9ZAn4X_LT2Ltt-44" edge="1">
          <mxGeometry relative="1" as="geometry" />
        </mxCell>
        <mxCell id="iYzIepz9ZAn4X_LT2Ltt-33" style="edgeStyle=orthogonalEdgeStyle;rounded=0;orthogonalLoop=1;jettySize=auto;html=1;exitX=1;exitY=0.5;exitDx=0;exitDy=0;exitPerimeter=0;entryX=0;entryY=0.5;entryDx=0;entryDy=0;" parent="iYzIepz9ZAn4X_LT2Ltt-5" source="iYzIepz9ZAn4X_LT2Ltt-27" target="iYzIepz9ZAn4X_LT2Ltt-29" edge="1">
          <mxGeometry relative="1" as="geometry" />
        </mxCell>
        <mxCell id="iYzIepz9ZAn4X_LT2Ltt-48" style="edgeStyle=orthogonalEdgeStyle;rounded=0;orthogonalLoop=1;jettySize=auto;html=1;entryX=0;entryY=0.333;entryDx=0;entryDy=0;entryPerimeter=0;" parent="iYzIepz9ZAn4X_LT2Ltt-5" target="iYzIepz9ZAn4X_LT2Ltt-15" edge="1">
          <mxGeometry relative="1" as="geometry">
            <mxPoint x="906" y="276" as="sourcePoint" />
            <Array as="points">
              <mxPoint x="906" y="225" />
              <mxPoint x="1006" y="225" />
              <mxPoint x="1006" y="66" />
              <mxPoint x="1391" y="66" />
              <mxPoint x="1391" y="200" />
            </Array>
          </mxGeometry>
        </mxCell>
        <mxCell id="iYzIepz9ZAn4X_LT2Ltt-8" value="&lt;font&gt;Transferência&lt;/font&gt;" style="swimlane;startSize=30;horizontal=0;html=1;align=center;fillColor=#60a917;fontColor=#ffffff;strokeColor=#2D7600;" parent="iYzIepz9ZAn4X_LT2Ltt-5" vertex="1">
          <mxGeometry y="272" width="1670" height="130" as="geometry" />
        </mxCell>
        <mxCell id="iYzIepz9ZAn4X_LT2Ltt-37" value="" style="edgeStyle=orthogonalEdgeStyle;rounded=0;orthogonalLoop=1;jettySize=auto;html=1;" parent="iYzIepz9ZAn4X_LT2Ltt-8" source="iYzIepz9ZAn4X_LT2Ltt-13" target="iYzIepz9ZAn4X_LT2Ltt-36" edge="1">
          <mxGeometry relative="1" as="geometry">
            <Array as="points">
              <mxPoint x="685" y="58" />
              <mxPoint x="685" y="59" />
            </Array>
          </mxGeometry>
        </mxCell>
        <mxCell id="iYzIepz9ZAn4X_LT2Ltt-13" value="Transferência" style="shape=manualInput;whiteSpace=wrap;html=1;" parent="iYzIepz9ZAn4X_LT2Ltt-8" vertex="1">
          <mxGeometry x="580" y="20" width="80" height="80" as="geometry" />
        </mxCell>
        <mxCell id="iYzIepz9ZAn4X_LT2Ltt-24" value="Comprovante" style="shape=display;whiteSpace=wrap;html=1;" parent="iYzIepz9ZAn4X_LT2Ltt-8" vertex="1">
          <mxGeometry x="1393" y="25" width="80" height="40" as="geometry" />
        </mxCell>
        <mxCell id="iYzIepz9ZAn4X_LT2Ltt-36" value="Informar Valor" style="html=1;strokeWidth=2;shape=manualInput;whiteSpace=wrap;rounded=1;size=26;arcSize=11;" parent="iYzIepz9ZAn4X_LT2Ltt-8" vertex="1">
          <mxGeometry x="710" y="29" width="100" height="60" as="geometry" />
        </mxCell>
        <mxCell id="iYzIepz9ZAn4X_LT2Ltt-42" value="Informar Conta&lt;br&gt;Destinatario" style="html=1;strokeWidth=2;shape=manualInput;whiteSpace=wrap;rounded=1;size=26;arcSize=11;" parent="iYzIepz9ZAn4X_LT2Ltt-8" vertex="1">
          <mxGeometry x="1003" y="21" width="110" height="80" as="geometry" />
        </mxCell>
        <mxCell id="iYzIepz9ZAn4X_LT2Ltt-54" value="" style="edgeStyle=orthogonalEdgeStyle;rounded=0;orthogonalLoop=1;jettySize=auto;html=1;" parent="iYzIepz9ZAn4X_LT2Ltt-8" source="iYzIepz9ZAn4X_LT2Ltt-52" target="iYzIepz9ZAn4X_LT2Ltt-24" edge="1">
          <mxGeometry relative="1" as="geometry" />
        </mxCell>
        <mxCell id="iYzIepz9ZAn4X_LT2Ltt-52" value="Realizar&lt;br&gt;Transferência" style="shape=manualInput;whiteSpace=wrap;html=1;" parent="iYzIepz9ZAn4X_LT2Ltt-8" vertex="1">
          <mxGeometry x="1233" y="25" width="80" height="80" as="geometry" />
        </mxCell>
        <mxCell id="iYzIepz9ZAn4X_LT2Ltt-60" value="SIM" style="text;html=1;align=center;verticalAlign=middle;resizable=0;points=[];autosize=1;strokeColor=none;fillColor=none;" parent="iYzIepz9ZAn4X_LT2Ltt-8" vertex="1">
          <mxGeometry x="927" y="91" width="40" height="30" as="geometry" />
        </mxCell>
        <mxCell id="n8ii3sNjxBkrGszpnpCZ-1" style="edgeStyle=orthogonalEdgeStyle;rounded=0;orthogonalLoop=1;jettySize=auto;html=1;exitX=1;exitY=0.5;exitDx=0;exitDy=0;exitPerimeter=0;" parent="iYzIepz9ZAn4X_LT2Ltt-8" source="iYzIepz9ZAn4X_LT2Ltt-12" target="iYzIepz9ZAn4X_LT2Ltt-13" edge="1">
          <mxGeometry relative="1" as="geometry">
            <Array as="points">
              <mxPoint x="551" y="61" />
              <mxPoint x="551" y="61" />
            </Array>
          </mxGeometry>
        </mxCell>
        <mxCell id="iYzIepz9ZAn4X_LT2Ltt-12" value="SALDO" style="shape=display;whiteSpace=wrap;html=1;" parent="iYzIepz9ZAn4X_LT2Ltt-8" vertex="1">
          <mxGeometry x="374" y="41" width="80" height="40" as="geometry" />
        </mxCell>
        <mxCell id="iYzIepz9ZAn4X_LT2Ltt-38" value="Saldo Suficiente?" style="strokeWidth=2;html=1;shape=mxgraph.flowchart.decision;whiteSpace=wrap;" parent="iYzIepz9ZAn4X_LT2Ltt-8" vertex="1">
          <mxGeometry x="856" y="7" width="100" height="100" as="geometry" />
        </mxCell>
        <mxCell id="iYzIepz9ZAn4X_LT2Ltt-49" style="edgeStyle=orthogonalEdgeStyle;rounded=0;orthogonalLoop=1;jettySize=auto;html=1;entryX=0;entryY=0.5;entryDx=0;entryDy=0;entryPerimeter=0;" parent="iYzIepz9ZAn4X_LT2Ltt-8" target="iYzIepz9ZAn4X_LT2Ltt-38" edge="1">
          <mxGeometry relative="1" as="geometry">
            <mxPoint x="813" y="46" as="sourcePoint" />
          </mxGeometry>
        </mxCell>
        <mxCell id="iYzIepz9ZAn4X_LT2Ltt-51" style="edgeStyle=orthogonalEdgeStyle;rounded=0;orthogonalLoop=1;jettySize=auto;html=1;exitX=0.5;exitY=1;exitDx=0;exitDy=0;exitPerimeter=0;entryX=0;entryY=0.75;entryDx=0;entryDy=0;" parent="iYzIepz9ZAn4X_LT2Ltt-8" source="iYzIepz9ZAn4X_LT2Ltt-38" target="iYzIepz9ZAn4X_LT2Ltt-42" edge="1">
          <mxGeometry relative="1" as="geometry" />
        </mxCell>
        <mxCell id="iYzIepz9ZAn4X_LT2Ltt-61" value="SIM" style="text;html=1;align=center;verticalAlign=middle;resizable=0;points=[];autosize=1;strokeColor=none;fillColor=none;" parent="iYzIepz9ZAn4X_LT2Ltt-8" vertex="1">
          <mxGeometry x="1207" y="9" width="40" height="30" as="geometry" />
        </mxCell>
        <mxCell id="iYzIepz9ZAn4X_LT2Ltt-9" value="Lanes: login, Cadastro, Transferênmcia" style="text;html=1;align=center;verticalAlign=middle;resizable=0;points=[];autosize=1;strokeColor=none;fillColor=none;" parent="1" vertex="1">
          <mxGeometry x="-2223" y="60" width="227" height="26" as="geometry" />
        </mxCell>
        <mxCell id="OG4bD8vopWJReQdSN9sa-51" value="Login / Cadastro" style="swimlane;childLayout=stackLayout;resizeParent=1;resizeParentMax=0;horizontal=1;startSize=20;horizontalStack=0;html=1;" parent="1" vertex="1">
          <mxGeometry x="-4164" y="2046" width="1395" height="978" as="geometry" />
        </mxCell>
        <mxCell id="OG4bD8vopWJReQdSN9sa-107" style="edgeStyle=orthogonalEdgeStyle;rounded=0;orthogonalLoop=1;jettySize=auto;html=1;exitX=0;exitY=0.5;exitDx=0;exitDy=0;" parent="OG4bD8vopWJReQdSN9sa-51" source="OG4bD8vopWJReQdSN9sa-108" target="OG4bD8vopWJReQdSN9sa-99" edge="1">
          <mxGeometry relative="1" as="geometry" />
        </mxCell>
        <mxCell id="OG4bD8vopWJReQdSN9sa-52" value="LOGIN" style="swimlane;startSize=20;horizontal=0;html=1;" parent="OG4bD8vopWJReQdSN9sa-51" vertex="1">
          <mxGeometry y="20" width="1395" height="443" as="geometry" />
        </mxCell>
        <mxCell id="OG4bD8vopWJReQdSN9sa-96" value="" style="edgeStyle=orthogonalEdgeStyle;rounded=0;orthogonalLoop=1;jettySize=auto;html=1;" parent="OG4bD8vopWJReQdSN9sa-52" source="OG4bD8vopWJReQdSN9sa-97" target="OG4bD8vopWJReQdSN9sa-101" edge="1">
          <mxGeometry relative="1" as="geometry" />
        </mxCell>
        <mxCell id="OG4bD8vopWJReQdSN9sa-97" value="Já sou cliente" style="rounded=1;whiteSpace=wrap;html=1;" parent="OG4bD8vopWJReQdSN9sa-52" vertex="1">
          <mxGeometry x="50.00000000000006" y="53" width="120" height="60" as="geometry" />
        </mxCell>
        <mxCell id="OG4bD8vopWJReQdSN9sa-100" value="" style="edgeStyle=orthogonalEdgeStyle;rounded=0;orthogonalLoop=1;jettySize=auto;html=1;" parent="OG4bD8vopWJReQdSN9sa-52" source="OG4bD8vopWJReQdSN9sa-101" target="OG4bD8vopWJReQdSN9sa-104" edge="1">
          <mxGeometry relative="1" as="geometry" />
        </mxCell>
        <mxCell id="OG4bD8vopWJReQdSN9sa-101" value="CPF e&amp;nbsp;&lt;br&gt;Senha" style="shape=manualInput;whiteSpace=wrap;html=1;" parent="OG4bD8vopWJReQdSN9sa-52" vertex="1">
          <mxGeometry x="217.00000000000006" y="-33" width="80" height="80" as="geometry" />
        </mxCell>
        <mxCell id="OG4bD8vopWJReQdSN9sa-102" value="" style="edgeStyle=orthogonalEdgeStyle;rounded=0;orthogonalLoop=1;jettySize=auto;html=1;" parent="OG4bD8vopWJReQdSN9sa-52" source="OG4bD8vopWJReQdSN9sa-104" target="OG4bD8vopWJReQdSN9sa-108" edge="1">
          <mxGeometry relative="1" as="geometry" />
        </mxCell>
        <mxCell id="OG4bD8vopWJReQdSN9sa-103" style="edgeStyle=orthogonalEdgeStyle;rounded=0;orthogonalLoop=1;jettySize=auto;html=1;exitX=1;exitY=0.5;exitDx=0;exitDy=0;entryX=0;entryY=0.5;entryDx=0;entryDy=0;" parent="OG4bD8vopWJReQdSN9sa-52" source="OG4bD8vopWJReQdSN9sa-104" target="OG4bD8vopWJReQdSN9sa-105" edge="1">
          <mxGeometry relative="1" as="geometry" />
        </mxCell>
        <mxCell id="OG4bD8vopWJReQdSN9sa-104" value="Dados Validos?" style="rhombus;whiteSpace=wrap;html=1;" parent="OG4bD8vopWJReQdSN9sa-52" vertex="1">
          <mxGeometry x="360.00000000000006" y="43" width="80" height="80" as="geometry" />
        </mxCell>
        <mxCell id="OG4bD8vopWJReQdSN9sa-105" value="FIM&lt;br&gt;(Login efetuado)" style="ellipse;whiteSpace=wrap;html=1;aspect=fixed;" parent="OG4bD8vopWJReQdSN9sa-52" vertex="1">
          <mxGeometry x="1290" y="43" width="80" height="80" as="geometry" />
        </mxCell>
        <mxCell id="OG4bD8vopWJReQdSN9sa-106" value="" style="edgeStyle=orthogonalEdgeStyle;rounded=0;orthogonalLoop=1;jettySize=auto;html=1;" parent="OG4bD8vopWJReQdSN9sa-52" source="OG4bD8vopWJReQdSN9sa-108" target="OG4bD8vopWJReQdSN9sa-110" edge="1">
          <mxGeometry relative="1" as="geometry" />
        </mxCell>
        <mxCell id="OG4bD8vopWJReQdSN9sa-108" value="CPF cadastrado?" style="rhombus;whiteSpace=wrap;html=1;" parent="OG4bD8vopWJReQdSN9sa-52" vertex="1">
          <mxGeometry x="353.00000000000006" y="155" width="93" height="80" as="geometry" />
        </mxCell>
        <mxCell id="OG4bD8vopWJReQdSN9sa-109" value="" style="edgeStyle=orthogonalEdgeStyle;rounded=0;orthogonalLoop=1;jettySize=auto;html=1;" parent="OG4bD8vopWJReQdSN9sa-52" source="OG4bD8vopWJReQdSN9sa-110" target="OG4bD8vopWJReQdSN9sa-112" edge="1">
          <mxGeometry relative="1" as="geometry" />
        </mxCell>
        <mxCell id="OG4bD8vopWJReQdSN9sa-110" value="Recuperar Senha" style="rounded=0;whiteSpace=wrap;html=1;" parent="OG4bD8vopWJReQdSN9sa-52" vertex="1">
          <mxGeometry x="500.00000000000006" y="163" width="120" height="60" as="geometry" />
        </mxCell>
        <mxCell id="OG4bD8vopWJReQdSN9sa-111" value="" style="edgeStyle=orthogonalEdgeStyle;rounded=0;orthogonalLoop=1;jettySize=auto;html=1;" parent="OG4bD8vopWJReQdSN9sa-52" source="OG4bD8vopWJReQdSN9sa-112" target="OG4bD8vopWJReQdSN9sa-115" edge="1">
          <mxGeometry relative="1" as="geometry" />
        </mxCell>
        <mxCell id="OG4bD8vopWJReQdSN9sa-112" value="Preencher dados de recuperação" style="shape=manualInput;whiteSpace=wrap;html=1;" parent="OG4bD8vopWJReQdSN9sa-52" vertex="1">
          <mxGeometry x="690" y="133" width="90" height="90" as="geometry" />
        </mxCell>
        <mxCell id="OG4bD8vopWJReQdSN9sa-113" value="Não" style="text;html=1;align=center;verticalAlign=middle;resizable=0;points=[];autosize=1;strokeColor=none;fillColor=none;" parent="OG4bD8vopWJReQdSN9sa-52" vertex="1">
          <mxGeometry x="353.00000000000006" y="116" width="50" height="30" as="geometry" />
        </mxCell>
        <mxCell id="OG4bD8vopWJReQdSN9sa-114" value="SIM" style="text;html=1;align=center;verticalAlign=middle;resizable=0;points=[];autosize=1;strokeColor=none;fillColor=none;" parent="OG4bD8vopWJReQdSN9sa-52" vertex="1">
          <mxGeometry x="440.00000000000006" y="153" width="40" height="30" as="geometry" />
        </mxCell>
        <mxCell id="OG4bD8vopWJReQdSN9sa-140" style="edgeStyle=orthogonalEdgeStyle;rounded=0;orthogonalLoop=1;jettySize=auto;html=1;exitX=0.25;exitY=0;exitDx=0;exitDy=0;entryX=0.75;entryY=0;entryDx=0;entryDy=0;" parent="OG4bD8vopWJReQdSN9sa-52" source="OG4bD8vopWJReQdSN9sa-115" target="OG4bD8vopWJReQdSN9sa-101" edge="1">
          <mxGeometry relative="1" as="geometry" />
        </mxCell>
        <mxCell id="OG4bD8vopWJReQdSN9sa-115" value="Gerar nova Senha" style="rounded=0;whiteSpace=wrap;html=1;" parent="OG4bD8vopWJReQdSN9sa-52" vertex="1">
          <mxGeometry x="860" y="153" width="120" height="60" as="geometry" />
        </mxCell>
        <mxCell id="OG4bD8vopWJReQdSN9sa-135" value="SIM" style="text;html=1;align=center;verticalAlign=middle;resizable=0;points=[];autosize=1;strokeColor=none;fillColor=none;" parent="OG4bD8vopWJReQdSN9sa-52" vertex="1">
          <mxGeometry x="480.00000000000006" y="51" width="40" height="30" as="geometry" />
        </mxCell>
        <mxCell id="OG4bD8vopWJReQdSN9sa-136" value="Não" style="text;html=1;align=center;verticalAlign=middle;resizable=0;points=[];autosize=1;strokeColor=none;fillColor=none;" parent="OG4bD8vopWJReQdSN9sa-52" vertex="1">
          <mxGeometry x="305.00000000000006" y="205" width="50" height="30" as="geometry" />
        </mxCell>
        <mxCell id="OG4bD8vopWJReQdSN9sa-53" value="Cadastro" style="swimlane;startSize=20;horizontal=0;html=1;" parent="OG4bD8vopWJReQdSN9sa-51" vertex="1">
          <mxGeometry y="463" width="1395" height="515" as="geometry" />
        </mxCell>
        <mxCell id="OG4bD8vopWJReQdSN9sa-99" value="Quero me cadastrar" style="rounded=1;whiteSpace=wrap;html=1;" parent="OG4bD8vopWJReQdSN9sa-53" vertex="1">
          <mxGeometry x="134.00000000000006" y="189" width="120" height="60" as="geometry" />
        </mxCell>
        <mxCell id="OG4bD8vopWJReQdSN9sa-117" value="Preencher:&lt;br&gt;Nome, data nascimento, CPF,Endereço" style="shape=manualInput;whiteSpace=wrap;html=1;" parent="OG4bD8vopWJReQdSN9sa-53" vertex="1">
          <mxGeometry x="359.00000000000006" y="169" width="100" height="100" as="geometry" />
        </mxCell>
        <mxCell id="OG4bD8vopWJReQdSN9sa-120" value="CPF já cadastrado?" style="rhombus;whiteSpace=wrap;html=1;" parent="OG4bD8vopWJReQdSN9sa-53" vertex="1">
          <mxGeometry x="523" y="179" width="80" height="80" as="geometry" />
        </mxCell>
        <mxCell id="OG4bD8vopWJReQdSN9sa-122" value="Informar CPF Já Cadastrado" style="shape=display;whiteSpace=wrap;html=1;" parent="OG4bD8vopWJReQdSN9sa-53" vertex="1">
          <mxGeometry x="504.00000000000006" y="333" width="120" height="60" as="geometry" />
        </mxCell>
        <mxCell id="OG4bD8vopWJReQdSN9sa-125" value="Definir Senha" style="shape=manualInput;whiteSpace=wrap;html=1;" parent="OG4bD8vopWJReQdSN9sa-53" vertex="1">
          <mxGeometry x="698" y="178" width="80" height="80" as="geometry" />
        </mxCell>
        <mxCell id="OG4bD8vopWJReQdSN9sa-129" value="Requisitos de Segurança ok?" style="rhombus;whiteSpace=wrap;html=1;" parent="OG4bD8vopWJReQdSN9sa-53" vertex="1">
          <mxGeometry x="882" y="169" width="120" height="100" as="geometry" />
        </mxCell>
        <mxCell id="OG4bD8vopWJReQdSN9sa-131" value="Informar Requisito não cumprido" style="shape=display;whiteSpace=wrap;html=1;" parent="OG4bD8vopWJReQdSN9sa-53" vertex="1">
          <mxGeometry x="893" y="367" width="96" height="50" as="geometry" />
        </mxCell>
        <mxCell id="OG4bD8vopWJReQdSN9sa-134" value="Registrar Senha" style="shape=tapeData;whiteSpace=wrap;html=1;perimeter=ellipsePerimeter;" parent="OG4bD8vopWJReQdSN9sa-53" vertex="1">
          <mxGeometry x="1124" y="179" width="80" height="80" as="geometry" />
        </mxCell>
        <mxCell id="OG4bD8vopWJReQdSN9sa-98" value="" style="edgeStyle=orthogonalEdgeStyle;rounded=0;orthogonalLoop=1;jettySize=auto;html=1;" parent="OG4bD8vopWJReQdSN9sa-53" source="OG4bD8vopWJReQdSN9sa-99" target="OG4bD8vopWJReQdSN9sa-117" edge="1">
          <mxGeometry relative="1" as="geometry" />
        </mxCell>
        <mxCell id="OG4bD8vopWJReQdSN9sa-116" value="" style="edgeStyle=orthogonalEdgeStyle;rounded=0;orthogonalLoop=1;jettySize=auto;html=1;" parent="OG4bD8vopWJReQdSN9sa-53" source="OG4bD8vopWJReQdSN9sa-117" target="OG4bD8vopWJReQdSN9sa-120" edge="1">
          <mxGeometry relative="1" as="geometry" />
        </mxCell>
        <mxCell id="OG4bD8vopWJReQdSN9sa-121" style="edgeStyle=orthogonalEdgeStyle;rounded=0;orthogonalLoop=1;jettySize=auto;html=1;exitX=0;exitY=0.5;exitDx=0;exitDy=0;exitPerimeter=0;entryX=0.5;entryY=1;entryDx=0;entryDy=0;" parent="OG4bD8vopWJReQdSN9sa-53" source="OG4bD8vopWJReQdSN9sa-122" target="OG4bD8vopWJReQdSN9sa-117" edge="1">
          <mxGeometry relative="1" as="geometry" />
        </mxCell>
        <mxCell id="OG4bD8vopWJReQdSN9sa-118" value="" style="edgeStyle=orthogonalEdgeStyle;rounded=0;orthogonalLoop=1;jettySize=auto;html=1;" parent="OG4bD8vopWJReQdSN9sa-53" source="OG4bD8vopWJReQdSN9sa-120" target="OG4bD8vopWJReQdSN9sa-122" edge="1">
          <mxGeometry relative="1" as="geometry" />
        </mxCell>
        <mxCell id="OG4bD8vopWJReQdSN9sa-119" value="" style="edgeStyle=orthogonalEdgeStyle;rounded=0;orthogonalLoop=1;jettySize=auto;html=1;" parent="OG4bD8vopWJReQdSN9sa-53" source="OG4bD8vopWJReQdSN9sa-120" target="OG4bD8vopWJReQdSN9sa-125" edge="1">
          <mxGeometry relative="1" as="geometry" />
        </mxCell>
        <mxCell id="OG4bD8vopWJReQdSN9sa-124" value="" style="edgeStyle=orthogonalEdgeStyle;rounded=0;orthogonalLoop=1;jettySize=auto;html=1;" parent="OG4bD8vopWJReQdSN9sa-53" source="OG4bD8vopWJReQdSN9sa-125" target="OG4bD8vopWJReQdSN9sa-129" edge="1">
          <mxGeometry relative="1" as="geometry" />
        </mxCell>
        <mxCell id="OG4bD8vopWJReQdSN9sa-130" style="edgeStyle=orthogonalEdgeStyle;rounded=0;orthogonalLoop=1;jettySize=auto;html=1;exitX=0;exitY=0.5;exitDx=0;exitDy=0;exitPerimeter=0;entryX=0.5;entryY=1;entryDx=0;entryDy=0;" parent="OG4bD8vopWJReQdSN9sa-53" source="OG4bD8vopWJReQdSN9sa-131" target="OG4bD8vopWJReQdSN9sa-125" edge="1">
          <mxGeometry relative="1" as="geometry" />
        </mxCell>
        <mxCell id="OG4bD8vopWJReQdSN9sa-127" value="" style="edgeStyle=orthogonalEdgeStyle;rounded=0;orthogonalLoop=1;jettySize=auto;html=1;" parent="OG4bD8vopWJReQdSN9sa-53" source="OG4bD8vopWJReQdSN9sa-129" target="OG4bD8vopWJReQdSN9sa-131" edge="1">
          <mxGeometry relative="1" as="geometry" />
        </mxCell>
        <mxCell id="OG4bD8vopWJReQdSN9sa-128" value="" style="edgeStyle=orthogonalEdgeStyle;rounded=0;orthogonalLoop=1;jettySize=auto;html=1;" parent="OG4bD8vopWJReQdSN9sa-53" source="OG4bD8vopWJReQdSN9sa-129" target="OG4bD8vopWJReQdSN9sa-134" edge="1">
          <mxGeometry relative="1" as="geometry" />
        </mxCell>
        <mxCell id="OG4bD8vopWJReQdSN9sa-132" value="Não" style="text;html=1;align=center;verticalAlign=middle;resizable=0;points=[];autosize=1;strokeColor=none;fillColor=none;" parent="OG4bD8vopWJReQdSN9sa-53" vertex="1">
          <mxGeometry x="621" y="178" width="50" height="30" as="geometry" />
        </mxCell>
        <mxCell id="OG4bD8vopWJReQdSN9sa-123" value="SIM" style="text;html=1;align=center;verticalAlign=middle;resizable=0;points=[];autosize=1;strokeColor=none;fillColor=none;" parent="OG4bD8vopWJReQdSN9sa-53" vertex="1">
          <mxGeometry x="576" y="286" width="40" height="30" as="geometry" />
        </mxCell>
        <mxCell id="OG4bD8vopWJReQdSN9sa-126" value="Não" style="text;html=1;align=center;verticalAlign=middle;resizable=0;points=[];autosize=1;strokeColor=none;fillColor=none;" parent="OG4bD8vopWJReQdSN9sa-53" vertex="1">
          <mxGeometry x="968" y="290" width="50" height="30" as="geometry" />
        </mxCell>
        <mxCell id="OG4bD8vopWJReQdSN9sa-139" style="edgeStyle=orthogonalEdgeStyle;rounded=0;orthogonalLoop=1;jettySize=auto;html=1;exitX=0.5;exitY=1;exitDx=0;exitDy=0;entryX=0;entryY=0.5;entryDx=0;entryDy=0;" parent="OG4bD8vopWJReQdSN9sa-51" source="OG4bD8vopWJReQdSN9sa-134" target="OG4bD8vopWJReQdSN9sa-97" edge="1">
          <mxGeometry relative="1" as="geometry">
            <Array as="points">
              <mxPoint x="1164" y="935" />
              <mxPoint x="30" y="935" />
              <mxPoint x="30" y="103" />
            </Array>
          </mxGeometry>
        </mxCell>
        <mxCell id="OG4bD8vopWJReQdSN9sa-141" value="" style="group" parent="1" vertex="1" connectable="0">
          <mxGeometry x="1070" y="-42" width="1680" height="820" as="geometry" />
        </mxCell>
        <mxCell id="iYzIepz9ZAn4X_LT2Ltt-21" value="LOGIN" style="swimlane;container=0;" parent="OG4bD8vopWJReQdSN9sa-141" vertex="1">
          <mxGeometry width="1426" height="631" as="geometry" />
        </mxCell>
        <mxCell id="OG4bD8vopWJReQdSN9sa-11" value="SIM" style="text;html=1;align=center;verticalAlign=middle;resizable=0;points=[];autosize=1;strokeColor=none;fillColor=none;" parent="OG4bD8vopWJReQdSN9sa-141" vertex="1">
          <mxGeometry x="480" y="68" width="40" height="30" as="geometry" />
        </mxCell>
        <mxCell id="OG4bD8vopWJReQdSN9sa-21" value="Não" style="text;html=1;align=center;verticalAlign=middle;resizable=0;points=[];autosize=1;strokeColor=none;fillColor=none;" parent="OG4bD8vopWJReQdSN9sa-141" vertex="1">
          <mxGeometry x="205" y="188" width="50" height="30" as="geometry" />
        </mxCell>
        <mxCell id="OG4bD8vopWJReQdSN9sa-7" value="" style="edgeStyle=orthogonalEdgeStyle;rounded=0;orthogonalLoop=1;jettySize=auto;html=1;" parent="OG4bD8vopWJReQdSN9sa-141" source="OG4bD8vopWJReQdSN9sa-3" target="OG4bD8vopWJReQdSN9sa-5" edge="1">
          <mxGeometry relative="1" as="geometry" />
        </mxCell>
        <mxCell id="OG4bD8vopWJReQdSN9sa-3" value="Já sou cliente" style="rounded=1;whiteSpace=wrap;html=1;" parent="OG4bD8vopWJReQdSN9sa-141" vertex="1">
          <mxGeometry x="50" y="70" width="120" height="60" as="geometry" />
        </mxCell>
        <mxCell id="OG4bD8vopWJReQdSN9sa-27" value="" style="edgeStyle=orthogonalEdgeStyle;rounded=0;orthogonalLoop=1;jettySize=auto;html=1;" parent="OG4bD8vopWJReQdSN9sa-141" source="OG4bD8vopWJReQdSN9sa-4" target="OG4bD8vopWJReQdSN9sa-26" edge="1">
          <mxGeometry relative="1" as="geometry" />
        </mxCell>
        <mxCell id="OG4bD8vopWJReQdSN9sa-4" value="Quero me cadastrar" style="rounded=1;whiteSpace=wrap;html=1;" parent="OG4bD8vopWJReQdSN9sa-141" vertex="1">
          <mxGeometry x="60" y="310" width="120" height="60" as="geometry" />
        </mxCell>
        <mxCell id="OG4bD8vopWJReQdSN9sa-8" value="" style="edgeStyle=orthogonalEdgeStyle;rounded=0;orthogonalLoop=1;jettySize=auto;html=1;" parent="OG4bD8vopWJReQdSN9sa-141" source="OG4bD8vopWJReQdSN9sa-5" target="OG4bD8vopWJReQdSN9sa-6" edge="1">
          <mxGeometry relative="1" as="geometry" />
        </mxCell>
        <mxCell id="OG4bD8vopWJReQdSN9sa-5" value="CPF e&amp;nbsp;&lt;br&gt;Senha" style="shape=manualInput;whiteSpace=wrap;html=1;" parent="OG4bD8vopWJReQdSN9sa-141" vertex="1">
          <mxGeometry x="230" y="50" width="80" height="80" as="geometry" />
        </mxCell>
        <mxCell id="OG4bD8vopWJReQdSN9sa-16" value="" style="edgeStyle=orthogonalEdgeStyle;rounded=0;orthogonalLoop=1;jettySize=auto;html=1;" parent="OG4bD8vopWJReQdSN9sa-141" source="OG4bD8vopWJReQdSN9sa-6" target="OG4bD8vopWJReQdSN9sa-12" edge="1">
          <mxGeometry relative="1" as="geometry" />
        </mxCell>
        <mxCell id="OG4bD8vopWJReQdSN9sa-49" style="edgeStyle=orthogonalEdgeStyle;rounded=0;orthogonalLoop=1;jettySize=auto;html=1;exitX=1;exitY=0.5;exitDx=0;exitDy=0;entryX=0;entryY=0.5;entryDx=0;entryDy=0;" parent="OG4bD8vopWJReQdSN9sa-141" source="OG4bD8vopWJReQdSN9sa-6" target="OG4bD8vopWJReQdSN9sa-9" edge="1">
          <mxGeometry relative="1" as="geometry" />
        </mxCell>
        <mxCell id="OG4bD8vopWJReQdSN9sa-6" value="Dados Validos?" style="rhombus;whiteSpace=wrap;html=1;" parent="OG4bD8vopWJReQdSN9sa-141" vertex="1">
          <mxGeometry x="360" y="60" width="80" height="80" as="geometry" />
        </mxCell>
        <mxCell id="OG4bD8vopWJReQdSN9sa-9" value="FIM&lt;br&gt;(Login efetuado)" style="ellipse;whiteSpace=wrap;html=1;aspect=fixed;" parent="OG4bD8vopWJReQdSN9sa-141" vertex="1">
          <mxGeometry x="1290" y="60" width="80" height="80" as="geometry" />
        </mxCell>
        <mxCell id="OG4bD8vopWJReQdSN9sa-14" value="" style="edgeStyle=orthogonalEdgeStyle;rounded=0;orthogonalLoop=1;jettySize=auto;html=1;" parent="OG4bD8vopWJReQdSN9sa-141" source="OG4bD8vopWJReQdSN9sa-12" target="OG4bD8vopWJReQdSN9sa-13" edge="1">
          <mxGeometry relative="1" as="geometry" />
        </mxCell>
        <mxCell id="OG4bD8vopWJReQdSN9sa-20" style="edgeStyle=orthogonalEdgeStyle;rounded=0;orthogonalLoop=1;jettySize=auto;html=1;exitX=0;exitY=0.5;exitDx=0;exitDy=0;" parent="OG4bD8vopWJReQdSN9sa-141" source="OG4bD8vopWJReQdSN9sa-12" target="OG4bD8vopWJReQdSN9sa-4" edge="1">
          <mxGeometry relative="1" as="geometry" />
        </mxCell>
        <mxCell id="OG4bD8vopWJReQdSN9sa-12" value="CPF cadastrado?" style="rhombus;whiteSpace=wrap;html=1;" parent="OG4bD8vopWJReQdSN9sa-141" vertex="1">
          <mxGeometry x="353" y="172" width="93" height="80" as="geometry" />
        </mxCell>
        <mxCell id="OG4bD8vopWJReQdSN9sa-22" value="" style="edgeStyle=orthogonalEdgeStyle;rounded=0;orthogonalLoop=1;jettySize=auto;html=1;" parent="OG4bD8vopWJReQdSN9sa-141" source="OG4bD8vopWJReQdSN9sa-13" target="OG4bD8vopWJReQdSN9sa-15" edge="1">
          <mxGeometry relative="1" as="geometry" />
        </mxCell>
        <mxCell id="OG4bD8vopWJReQdSN9sa-13" value="Recuperar Senha" style="rounded=0;whiteSpace=wrap;html=1;" parent="OG4bD8vopWJReQdSN9sa-141" vertex="1">
          <mxGeometry x="500" y="180" width="120" height="60" as="geometry" />
        </mxCell>
        <mxCell id="OG4bD8vopWJReQdSN9sa-24" value="" style="edgeStyle=orthogonalEdgeStyle;rounded=0;orthogonalLoop=1;jettySize=auto;html=1;" parent="OG4bD8vopWJReQdSN9sa-141" source="OG4bD8vopWJReQdSN9sa-15" target="OG4bD8vopWJReQdSN9sa-23" edge="1">
          <mxGeometry relative="1" as="geometry" />
        </mxCell>
        <mxCell id="OG4bD8vopWJReQdSN9sa-15" value="Preencher dados de recuperação" style="shape=manualInput;whiteSpace=wrap;html=1;" parent="OG4bD8vopWJReQdSN9sa-141" vertex="1">
          <mxGeometry x="690" y="150" width="90" height="90" as="geometry" />
        </mxCell>
        <mxCell id="OG4bD8vopWJReQdSN9sa-17" value="Não" style="text;html=1;align=center;verticalAlign=middle;resizable=0;points=[];autosize=1;strokeColor=none;fillColor=none;" parent="OG4bD8vopWJReQdSN9sa-141" vertex="1">
          <mxGeometry x="340" y="140" width="50" height="30" as="geometry" />
        </mxCell>
        <mxCell id="OG4bD8vopWJReQdSN9sa-19" value="SIM" style="text;html=1;align=center;verticalAlign=middle;resizable=0;points=[];autosize=1;strokeColor=none;fillColor=none;" parent="OG4bD8vopWJReQdSN9sa-141" vertex="1">
          <mxGeometry x="440" y="170" width="40" height="30" as="geometry" />
        </mxCell>
        <mxCell id="OG4bD8vopWJReQdSN9sa-25" style="edgeStyle=orthogonalEdgeStyle;rounded=0;orthogonalLoop=1;jettySize=auto;html=1;exitX=0.5;exitY=0;exitDx=0;exitDy=0;entryX=0.75;entryY=0;entryDx=0;entryDy=0;" parent="OG4bD8vopWJReQdSN9sa-141" source="OG4bD8vopWJReQdSN9sa-23" target="OG4bD8vopWJReQdSN9sa-5" edge="1">
          <mxGeometry relative="1" as="geometry" />
        </mxCell>
        <mxCell id="OG4bD8vopWJReQdSN9sa-23" value="Gerar nova Senha" style="rounded=0;whiteSpace=wrap;html=1;" parent="OG4bD8vopWJReQdSN9sa-141" vertex="1">
          <mxGeometry x="860" y="170" width="120" height="60" as="geometry" />
        </mxCell>
        <mxCell id="OG4bD8vopWJReQdSN9sa-29" value="" style="edgeStyle=orthogonalEdgeStyle;rounded=0;orthogonalLoop=1;jettySize=auto;html=1;" parent="OG4bD8vopWJReQdSN9sa-141" source="OG4bD8vopWJReQdSN9sa-26" target="OG4bD8vopWJReQdSN9sa-28" edge="1">
          <mxGeometry relative="1" as="geometry" />
        </mxCell>
        <mxCell id="OG4bD8vopWJReQdSN9sa-26" value="Preencher:&lt;br&gt;Nome, data nascimento, CPF" style="shape=manualInput;whiteSpace=wrap;html=1;" parent="OG4bD8vopWJReQdSN9sa-141" vertex="1">
          <mxGeometry x="230" y="260" width="100" height="100" as="geometry" />
        </mxCell>
        <mxCell id="OG4bD8vopWJReQdSN9sa-31" value="" style="edgeStyle=orthogonalEdgeStyle;rounded=0;orthogonalLoop=1;jettySize=auto;html=1;" parent="OG4bD8vopWJReQdSN9sa-141" source="OG4bD8vopWJReQdSN9sa-28" target="OG4bD8vopWJReQdSN9sa-30" edge="1">
          <mxGeometry relative="1" as="geometry" />
        </mxCell>
        <mxCell id="OG4bD8vopWJReQdSN9sa-37" value="" style="edgeStyle=orthogonalEdgeStyle;rounded=0;orthogonalLoop=1;jettySize=auto;html=1;" parent="OG4bD8vopWJReQdSN9sa-141" source="OG4bD8vopWJReQdSN9sa-28" target="OG4bD8vopWJReQdSN9sa-36" edge="1">
          <mxGeometry relative="1" as="geometry" />
        </mxCell>
        <mxCell id="OG4bD8vopWJReQdSN9sa-28" value="CPF já cadastrado?" style="rhombus;whiteSpace=wrap;html=1;" parent="OG4bD8vopWJReQdSN9sa-141" vertex="1">
          <mxGeometry x="360" y="290" width="80" height="80" as="geometry" />
        </mxCell>
        <mxCell id="OG4bD8vopWJReQdSN9sa-32" style="edgeStyle=orthogonalEdgeStyle;rounded=0;orthogonalLoop=1;jettySize=auto;html=1;exitX=0;exitY=0.5;exitDx=0;exitDy=0;exitPerimeter=0;entryX=0.5;entryY=1;entryDx=0;entryDy=0;" parent="OG4bD8vopWJReQdSN9sa-141" source="OG4bD8vopWJReQdSN9sa-30" target="OG4bD8vopWJReQdSN9sa-26" edge="1">
          <mxGeometry relative="1" as="geometry" />
        </mxCell>
        <mxCell id="OG4bD8vopWJReQdSN9sa-30" value="Informar CPF Já Cadastrado" style="shape=display;whiteSpace=wrap;html=1;" parent="OG4bD8vopWJReQdSN9sa-141" vertex="1">
          <mxGeometry x="340" y="400" width="120" height="60" as="geometry" />
        </mxCell>
        <mxCell id="OG4bD8vopWJReQdSN9sa-33" value="SIM" style="text;html=1;align=center;verticalAlign=middle;resizable=0;points=[];autosize=1;strokeColor=none;fillColor=none;" parent="OG4bD8vopWJReQdSN9sa-141" vertex="1">
          <mxGeometry x="410" y="360" width="40" height="30" as="geometry" />
        </mxCell>
        <mxCell id="OG4bD8vopWJReQdSN9sa-40" value="" style="edgeStyle=orthogonalEdgeStyle;rounded=0;orthogonalLoop=1;jettySize=auto;html=1;" parent="OG4bD8vopWJReQdSN9sa-141" source="OG4bD8vopWJReQdSN9sa-36" target="OG4bD8vopWJReQdSN9sa-39" edge="1">
          <mxGeometry relative="1" as="geometry" />
        </mxCell>
        <mxCell id="OG4bD8vopWJReQdSN9sa-36" value="Definir Senha" style="shape=manualInput;whiteSpace=wrap;html=1;" parent="OG4bD8vopWJReQdSN9sa-141" vertex="1">
          <mxGeometry x="480" y="290" width="80" height="80" as="geometry" />
        </mxCell>
        <mxCell id="OG4bD8vopWJReQdSN9sa-38" value="Não" style="text;html=1;align=center;verticalAlign=middle;resizable=0;points=[];autosize=1;strokeColor=none;fillColor=none;" parent="OG4bD8vopWJReQdSN9sa-141" vertex="1">
          <mxGeometry x="430" y="295" width="50" height="30" as="geometry" />
        </mxCell>
        <mxCell id="OG4bD8vopWJReQdSN9sa-43" value="" style="edgeStyle=orthogonalEdgeStyle;rounded=0;orthogonalLoop=1;jettySize=auto;html=1;" parent="OG4bD8vopWJReQdSN9sa-141" source="OG4bD8vopWJReQdSN9sa-39" target="OG4bD8vopWJReQdSN9sa-42" edge="1">
          <mxGeometry relative="1" as="geometry" />
        </mxCell>
        <mxCell id="OG4bD8vopWJReQdSN9sa-47" value="" style="edgeStyle=orthogonalEdgeStyle;rounded=0;orthogonalLoop=1;jettySize=auto;html=1;" parent="OG4bD8vopWJReQdSN9sa-141" source="OG4bD8vopWJReQdSN9sa-39" target="OG4bD8vopWJReQdSN9sa-46" edge="1">
          <mxGeometry relative="1" as="geometry" />
        </mxCell>
        <mxCell id="OG4bD8vopWJReQdSN9sa-39" value="Requisitos de Segurança ok?" style="rhombus;whiteSpace=wrap;html=1;" parent="OG4bD8vopWJReQdSN9sa-141" vertex="1">
          <mxGeometry x="600" y="280" width="120" height="100" as="geometry" />
        </mxCell>
        <mxCell id="OG4bD8vopWJReQdSN9sa-44" style="edgeStyle=orthogonalEdgeStyle;rounded=0;orthogonalLoop=1;jettySize=auto;html=1;exitX=0;exitY=0.5;exitDx=0;exitDy=0;exitPerimeter=0;entryX=0.5;entryY=1;entryDx=0;entryDy=0;" parent="OG4bD8vopWJReQdSN9sa-141" source="OG4bD8vopWJReQdSN9sa-42" target="OG4bD8vopWJReQdSN9sa-36" edge="1">
          <mxGeometry relative="1" as="geometry" />
        </mxCell>
        <mxCell id="OG4bD8vopWJReQdSN9sa-42" value="Informar Requisito não cumprido" style="shape=display;whiteSpace=wrap;html=1;" parent="OG4bD8vopWJReQdSN9sa-141" vertex="1">
          <mxGeometry x="610" y="410" width="96" height="50" as="geometry" />
        </mxCell>
        <mxCell id="OG4bD8vopWJReQdSN9sa-45" value="Não" style="text;html=1;align=center;verticalAlign=middle;resizable=0;points=[];autosize=1;strokeColor=none;fillColor=none;" parent="OG4bD8vopWJReQdSN9sa-141" vertex="1">
          <mxGeometry x="670" y="380" width="50" height="30" as="geometry" />
        </mxCell>
        <mxCell id="OG4bD8vopWJReQdSN9sa-50" style="edgeStyle=orthogonalEdgeStyle;rounded=0;orthogonalLoop=1;jettySize=auto;html=1;exitX=0.5;exitY=1;exitDx=0;exitDy=0;entryX=0;entryY=0.5;entryDx=0;entryDy=0;" parent="OG4bD8vopWJReQdSN9sa-141" source="OG4bD8vopWJReQdSN9sa-46" target="OG4bD8vopWJReQdSN9sa-3" edge="1">
          <mxGeometry relative="1" as="geometry">
            <Array as="points">
              <mxPoint x="800" y="570" />
              <mxPoint x="30" y="570" />
              <mxPoint x="30" y="100" />
            </Array>
          </mxGeometry>
        </mxCell>
        <mxCell id="OG4bD8vopWJReQdSN9sa-46" value="Registrar Senha" style="shape=tapeData;whiteSpace=wrap;html=1;perimeter=ellipsePerimeter;" parent="OG4bD8vopWJReQdSN9sa-141" vertex="1">
          <mxGeometry x="760" y="290" width="80" height="80" as="geometry" />
        </mxCell>
        <mxCell id="jbRMt7m1qjUNTzpwiAmh-6" value="Pool" style="swimlane;childLayout=stackLayout;resizeParent=1;resizeParentMax=0;horizontal=1;startSize=20;horizontalStack=0;html=1;" parent="1" vertex="1">
          <mxGeometry x="-4377" y="-143" width="1884" height="1292" as="geometry" />
        </mxCell>
        <mxCell id="jbRMt7m1qjUNTzpwiAmh-7" value="Cadastro" style="swimlane;startSize=20;horizontal=0;html=1;" parent="jbRMt7m1qjUNTzpwiAmh-6" vertex="1">
          <mxGeometry y="20" width="1884" height="793" as="geometry" />
        </mxCell>
        <mxCell id="jbRMt7m1qjUNTzpwiAmh-40" style="edgeStyle=orthogonalEdgeStyle;rounded=0;orthogonalLoop=1;jettySize=auto;html=1;exitX=1;exitY=0.5;exitDx=0;exitDy=0;entryX=0;entryY=0.5;entryDx=0;entryDy=0;" parent="jbRMt7m1qjUNTzpwiAmh-7" source="jbRMt7m1qjUNTzpwiAmh-10" target="jbRMt7m1qjUNTzpwiAmh-11" edge="1">
          <mxGeometry relative="1" as="geometry" />
        </mxCell>
        <mxCell id="jbRMt7m1qjUNTzpwiAmh-10" value="Já sou cliente" style="rounded=1;whiteSpace=wrap;html=1;" parent="jbRMt7m1qjUNTzpwiAmh-7" vertex="1">
          <mxGeometry x="40" y="27" width="91" height="36" as="geometry" />
        </mxCell>
        <mxCell id="jbRMt7m1qjUNTzpwiAmh-16" style="edgeStyle=orthogonalEdgeStyle;rounded=0;orthogonalLoop=1;jettySize=auto;html=1;exitX=0.5;exitY=1;exitDx=0;exitDy=0;entryX=0.5;entryY=0;entryDx=0;entryDy=0;" parent="jbRMt7m1qjUNTzpwiAmh-7" source="jbRMt7m1qjUNTzpwiAmh-11" target="jbRMt7m1qjUNTzpwiAmh-12" edge="1">
          <mxGeometry relative="1" as="geometry" />
        </mxCell>
        <mxCell id="jbRMt7m1qjUNTzpwiAmh-41" style="edgeStyle=orthogonalEdgeStyle;rounded=0;orthogonalLoop=1;jettySize=auto;html=1;exitX=1;exitY=0.5;exitDx=0;exitDy=0;entryX=0;entryY=0.5;entryDx=0;entryDy=0;" parent="jbRMt7m1qjUNTzpwiAmh-7" source="jbRMt7m1qjUNTzpwiAmh-11" target="jbRMt7m1qjUNTzpwiAmh-13" edge="1">
          <mxGeometry relative="1" as="geometry" />
        </mxCell>
        <mxCell id="jbRMt7m1qjUNTzpwiAmh-11" value="CPF e&amp;nbsp;&lt;br&gt;Senha" style="shape=manualInput;whiteSpace=wrap;html=1;" parent="jbRMt7m1qjUNTzpwiAmh-7" vertex="1">
          <mxGeometry x="245" y="4" width="80" height="80" as="geometry" />
        </mxCell>
        <mxCell id="jbRMt7m1qjUNTzpwiAmh-20" style="edgeStyle=orthogonalEdgeStyle;rounded=0;orthogonalLoop=1;jettySize=auto;html=1;exitX=0;exitY=0.5;exitDx=0;exitDy=0;entryX=0.5;entryY=0;entryDx=0;entryDy=0;" parent="jbRMt7m1qjUNTzpwiAmh-7" source="jbRMt7m1qjUNTzpwiAmh-12" target="jbRMt7m1qjUNTzpwiAmh-17" edge="1">
          <mxGeometry relative="1" as="geometry" />
        </mxCell>
        <mxCell id="jbRMt7m1qjUNTzpwiAmh-43" value="NAO" style="edgeLabel;html=1;align=center;verticalAlign=middle;resizable=0;points=[];" parent="jbRMt7m1qjUNTzpwiAmh-20" vertex="1" connectable="0">
          <mxGeometry x="-0.544" y="10" relative="1" as="geometry">
            <mxPoint as="offset" />
          </mxGeometry>
        </mxCell>
        <mxCell id="jbRMt7m1qjUNTzpwiAmh-12" value="Dados Validos?" style="rhombus;whiteSpace=wrap;html=1;" parent="jbRMt7m1qjUNTzpwiAmh-7" vertex="1">
          <mxGeometry x="246" y="175" width="80" height="80" as="geometry" />
        </mxCell>
        <mxCell id="jbRMt7m1qjUNTzpwiAmh-45" style="edgeStyle=orthogonalEdgeStyle;rounded=0;orthogonalLoop=1;jettySize=auto;html=1;exitX=0.5;exitY=1;exitDx=0;exitDy=0;entryX=0.25;entryY=0;entryDx=0;entryDy=0;" parent="jbRMt7m1qjUNTzpwiAmh-7" source="jbRMt7m1qjUNTzpwiAmh-13" target="jbRMt7m1qjUNTzpwiAmh-17" edge="1">
          <mxGeometry relative="1" as="geometry">
            <Array as="points">
              <mxPoint x="459" y="160" />
              <mxPoint x="95" y="160" />
              <mxPoint x="95" y="288" />
              <mxPoint x="110" y="288" />
            </Array>
          </mxGeometry>
        </mxCell>
        <mxCell id="jbRMt7m1qjUNTzpwiAmh-51" style="edgeStyle=orthogonalEdgeStyle;rounded=0;orthogonalLoop=1;jettySize=auto;html=1;exitX=1;exitY=0.5;exitDx=0;exitDy=0;entryX=0;entryY=0.5;entryDx=0;entryDy=0;" parent="jbRMt7m1qjUNTzpwiAmh-7" source="jbRMt7m1qjUNTzpwiAmh-13" target="jbRMt7m1qjUNTzpwiAmh-47" edge="1">
          <mxGeometry relative="1" as="geometry" />
        </mxCell>
        <mxCell id="jbRMt7m1qjUNTzpwiAmh-13" value="CPF cadastrado?" style="rhombus;whiteSpace=wrap;html=1;" parent="jbRMt7m1qjUNTzpwiAmh-7" vertex="1">
          <mxGeometry x="413" y="4" width="93" height="80" as="geometry" />
        </mxCell>
        <mxCell id="jbRMt7m1qjUNTzpwiAmh-36" style="edgeStyle=orthogonalEdgeStyle;rounded=0;orthogonalLoop=1;jettySize=auto;html=1;exitX=1;exitY=0.5;exitDx=0;exitDy=0;entryX=0;entryY=0.5;entryDx=0;entryDy=0;" parent="jbRMt7m1qjUNTzpwiAmh-7" source="jbRMt7m1qjUNTzpwiAmh-17" target="jbRMt7m1qjUNTzpwiAmh-21" edge="1">
          <mxGeometry relative="1" as="geometry" />
        </mxCell>
        <mxCell id="jbRMt7m1qjUNTzpwiAmh-17" value="Quero me cadastrar" style="rounded=1;whiteSpace=wrap;html=1;" parent="jbRMt7m1qjUNTzpwiAmh-7" vertex="1">
          <mxGeometry x="82" y="317" width="113" height="43" as="geometry" />
        </mxCell>
        <mxCell id="jbRMt7m1qjUNTzpwiAmh-37" style="edgeStyle=orthogonalEdgeStyle;rounded=0;orthogonalLoop=1;jettySize=auto;html=1;exitX=1;exitY=0.5;exitDx=0;exitDy=0;entryX=0;entryY=0.5;entryDx=0;entryDy=0;" parent="jbRMt7m1qjUNTzpwiAmh-7" source="jbRMt7m1qjUNTzpwiAmh-21" target="jbRMt7m1qjUNTzpwiAmh-22" edge="1">
          <mxGeometry relative="1" as="geometry" />
        </mxCell>
        <mxCell id="jbRMt7m1qjUNTzpwiAmh-21" value="Preencher:&lt;br&gt;Nome, data nascimento, CPF,Endereço" style="shape=manualInput;whiteSpace=wrap;html=1;" parent="jbRMt7m1qjUNTzpwiAmh-7" vertex="1">
          <mxGeometry x="375" y="288" width="100" height="100" as="geometry" />
        </mxCell>
        <mxCell id="jbRMt7m1qjUNTzpwiAmh-54" value="" style="edgeStyle=orthogonalEdgeStyle;rounded=0;orthogonalLoop=1;jettySize=auto;html=1;" parent="jbRMt7m1qjUNTzpwiAmh-7" source="jbRMt7m1qjUNTzpwiAmh-22" target="jbRMt7m1qjUNTzpwiAmh-24" edge="1">
          <mxGeometry relative="1" as="geometry" />
        </mxCell>
        <mxCell id="jbRMt7m1qjUNTzpwiAmh-22" value="CPF já cadastrado?" style="rhombus;whiteSpace=wrap;html=1;" parent="jbRMt7m1qjUNTzpwiAmh-7" vertex="1">
          <mxGeometry x="553" y="299" width="80" height="80" as="geometry" />
        </mxCell>
        <mxCell id="jbRMt7m1qjUNTzpwiAmh-62" style="edgeStyle=orthogonalEdgeStyle;rounded=0;orthogonalLoop=1;jettySize=auto;html=1;exitX=0;exitY=0.5;exitDx=0;exitDy=0;exitPerimeter=0;entryX=0.25;entryY=1;entryDx=0;entryDy=0;" parent="jbRMt7m1qjUNTzpwiAmh-7" source="jbRMt7m1qjUNTzpwiAmh-23" target="jbRMt7m1qjUNTzpwiAmh-21" edge="1">
          <mxGeometry relative="1" as="geometry" />
        </mxCell>
        <mxCell id="jbRMt7m1qjUNTzpwiAmh-23" value="Informar CPF Já Cadastrado" style="shape=display;whiteSpace=wrap;html=1;" parent="jbRMt7m1qjUNTzpwiAmh-7" vertex="1">
          <mxGeometry x="523" y="461" width="120" height="60" as="geometry" />
        </mxCell>
        <mxCell id="jbRMt7m1qjUNTzpwiAmh-55" value="" style="edgeStyle=orthogonalEdgeStyle;rounded=0;orthogonalLoop=1;jettySize=auto;html=1;" parent="jbRMt7m1qjUNTzpwiAmh-7" source="jbRMt7m1qjUNTzpwiAmh-24" target="jbRMt7m1qjUNTzpwiAmh-25" edge="1">
          <mxGeometry relative="1" as="geometry" />
        </mxCell>
        <mxCell id="jbRMt7m1qjUNTzpwiAmh-24" value="Definir Senha" style="shape=manualInput;whiteSpace=wrap;html=1;" parent="jbRMt7m1qjUNTzpwiAmh-7" vertex="1">
          <mxGeometry x="708" y="298" width="80" height="80" as="geometry" />
        </mxCell>
        <mxCell id="jbRMt7m1qjUNTzpwiAmh-56" value="" style="edgeStyle=orthogonalEdgeStyle;rounded=0;orthogonalLoop=1;jettySize=auto;html=1;" parent="jbRMt7m1qjUNTzpwiAmh-7" source="jbRMt7m1qjUNTzpwiAmh-25" target="jbRMt7m1qjUNTzpwiAmh-26" edge="1">
          <mxGeometry relative="1" as="geometry" />
        </mxCell>
        <mxCell id="jbRMt7m1qjUNTzpwiAmh-58" value="" style="edgeStyle=orthogonalEdgeStyle;rounded=0;orthogonalLoop=1;jettySize=auto;html=1;" parent="jbRMt7m1qjUNTzpwiAmh-7" source="jbRMt7m1qjUNTzpwiAmh-25" target="jbRMt7m1qjUNTzpwiAmh-27" edge="1">
          <mxGeometry relative="1" as="geometry" />
        </mxCell>
        <mxCell id="jbRMt7m1qjUNTzpwiAmh-25" value="Requisitos de Segurança ok?" style="rhombus;whiteSpace=wrap;html=1;" parent="jbRMt7m1qjUNTzpwiAmh-7" vertex="1">
          <mxGeometry x="883" y="288" width="120" height="100" as="geometry" />
        </mxCell>
        <mxCell id="jbRMt7m1qjUNTzpwiAmh-57" style="edgeStyle=orthogonalEdgeStyle;rounded=0;orthogonalLoop=1;jettySize=auto;html=1;exitX=0;exitY=0.5;exitDx=0;exitDy=0;exitPerimeter=0;entryX=0.5;entryY=1;entryDx=0;entryDy=0;" parent="jbRMt7m1qjUNTzpwiAmh-7" source="jbRMt7m1qjUNTzpwiAmh-26" target="jbRMt7m1qjUNTzpwiAmh-24" edge="1">
          <mxGeometry relative="1" as="geometry" />
        </mxCell>
        <mxCell id="jbRMt7m1qjUNTzpwiAmh-26" value="Informar Requisito não cumprido" style="shape=display;whiteSpace=wrap;html=1;" parent="jbRMt7m1qjUNTzpwiAmh-7" vertex="1">
          <mxGeometry x="896" y="460" width="96" height="50" as="geometry" />
        </mxCell>
        <mxCell id="jbRMt7m1qjUNTzpwiAmh-63" style="edgeStyle=orthogonalEdgeStyle;rounded=0;orthogonalLoop=1;jettySize=auto;html=1;exitX=0.5;exitY=1;exitDx=0;exitDy=0;entryX=0.221;entryY=0.302;entryDx=0;entryDy=0;entryPerimeter=0;" parent="jbRMt7m1qjUNTzpwiAmh-7" target="jbRMt7m1qjUNTzpwiAmh-11" edge="1">
          <mxGeometry relative="1" as="geometry">
            <mxPoint x="1101" y="354" as="sourcePoint" />
            <mxPoint x="241" y="20" as="targetPoint" />
            <Array as="points">
              <mxPoint x="1101" y="532" />
              <mxPoint x="27" y="532" />
              <mxPoint x="27" y="20" />
              <mxPoint x="263" y="20" />
            </Array>
          </mxGeometry>
        </mxCell>
        <mxCell id="jbRMt7m1qjUNTzpwiAmh-27" value="Registrar Senha" style="shape=tapeData;whiteSpace=wrap;html=1;perimeter=ellipsePerimeter;" parent="jbRMt7m1qjUNTzpwiAmh-7" vertex="1">
          <mxGeometry x="1065" y="298" width="80" height="80" as="geometry" />
        </mxCell>
        <mxCell id="jbRMt7m1qjUNTzpwiAmh-28" value="Cadastro" style="swimlane;startSize=20;horizontal=0;html=1;" parent="jbRMt7m1qjUNTzpwiAmh-7" vertex="1">
          <mxGeometry x="137" y="-1576" width="1152" height="315" as="geometry" />
        </mxCell>
        <mxCell id="jbRMt7m1qjUNTzpwiAmh-29" value="Já sou cliente" style="rounded=1;whiteSpace=wrap;html=1;" parent="jbRMt7m1qjUNTzpwiAmh-28" vertex="1">
          <mxGeometry x="40" y="27" width="91" height="36" as="geometry" />
        </mxCell>
        <mxCell id="jbRMt7m1qjUNTzpwiAmh-30" style="edgeStyle=orthogonalEdgeStyle;rounded=0;orthogonalLoop=1;jettySize=auto;html=1;exitX=0.5;exitY=1;exitDx=0;exitDy=0;entryX=0.5;entryY=0;entryDx=0;entryDy=0;" parent="jbRMt7m1qjUNTzpwiAmh-28" source="jbRMt7m1qjUNTzpwiAmh-31" target="jbRMt7m1qjUNTzpwiAmh-33" edge="1">
          <mxGeometry relative="1" as="geometry" />
        </mxCell>
        <mxCell id="jbRMt7m1qjUNTzpwiAmh-31" value="CPF e&amp;nbsp;&lt;br&gt;Senha" style="shape=manualInput;whiteSpace=wrap;html=1;" parent="jbRMt7m1qjUNTzpwiAmh-28" vertex="1">
          <mxGeometry x="244" y="4" width="80" height="80" as="geometry" />
        </mxCell>
        <mxCell id="jbRMt7m1qjUNTzpwiAmh-32" style="edgeStyle=orthogonalEdgeStyle;rounded=0;orthogonalLoop=1;jettySize=auto;html=1;exitX=0;exitY=0.5;exitDx=0;exitDy=0;entryX=0.5;entryY=0;entryDx=0;entryDy=0;" parent="jbRMt7m1qjUNTzpwiAmh-28" source="jbRMt7m1qjUNTzpwiAmh-33" target="jbRMt7m1qjUNTzpwiAmh-35" edge="1">
          <mxGeometry relative="1" as="geometry" />
        </mxCell>
        <mxCell id="jbRMt7m1qjUNTzpwiAmh-33" value="Dados Validos?" style="rhombus;whiteSpace=wrap;html=1;" parent="jbRMt7m1qjUNTzpwiAmh-28" vertex="1">
          <mxGeometry x="246" y="101" width="80" height="80" as="geometry" />
        </mxCell>
        <mxCell id="jbRMt7m1qjUNTzpwiAmh-34" value="CPF cadastrado?" style="rhombus;whiteSpace=wrap;html=1;" parent="jbRMt7m1qjUNTzpwiAmh-28" vertex="1">
          <mxGeometry x="420" y="6" width="93" height="80" as="geometry" />
        </mxCell>
        <mxCell id="jbRMt7m1qjUNTzpwiAmh-35" value="Quero me cadastrar" style="rounded=1;whiteSpace=wrap;html=1;" parent="jbRMt7m1qjUNTzpwiAmh-28" vertex="1">
          <mxGeometry x="45" y="193" width="113" height="43" as="geometry" />
        </mxCell>
        <mxCell id="jbRMt7m1qjUNTzpwiAmh-38" style="edgeStyle=orthogonalEdgeStyle;rounded=0;orthogonalLoop=1;jettySize=auto;html=1;exitX=0.5;exitY=1;exitDx=0;exitDy=0;entryX=0.579;entryY=0.047;entryDx=0;entryDy=0;entryPerimeter=0;" parent="jbRMt7m1qjUNTzpwiAmh-7" source="jbRMt7m1qjUNTzpwiAmh-22" target="jbRMt7m1qjUNTzpwiAmh-23" edge="1">
          <mxGeometry relative="1" as="geometry" />
        </mxCell>
        <mxCell id="jbRMt7m1qjUNTzpwiAmh-42" value="SIM" style="text;html=1;align=center;verticalAlign=middle;resizable=0;points=[];autosize=1;strokeColor=none;fillColor=none;" parent="jbRMt7m1qjUNTzpwiAmh-7" vertex="1">
          <mxGeometry x="288" y="251" width="39" height="26" as="geometry" />
        </mxCell>
        <mxCell id="jbRMt7m1qjUNTzpwiAmh-46" value="NAO" style="edgeLabel;html=1;align=center;verticalAlign=middle;resizable=0;points=[];" parent="jbRMt7m1qjUNTzpwiAmh-7" vertex="1" connectable="0">
          <mxGeometry x="454.0047368421051" y="244" as="geometry">
            <mxPoint x="-83" y="-96" as="offset" />
          </mxGeometry>
        </mxCell>
        <mxCell id="jbRMt7m1qjUNTzpwiAmh-52" style="edgeStyle=orthogonalEdgeStyle;rounded=0;orthogonalLoop=1;jettySize=auto;html=1;exitX=1;exitY=0.5;exitDx=0;exitDy=0;entryX=0;entryY=0.5;entryDx=0;entryDy=0;" parent="jbRMt7m1qjUNTzpwiAmh-7" source="jbRMt7m1qjUNTzpwiAmh-47" target="jbRMt7m1qjUNTzpwiAmh-48" edge="1">
          <mxGeometry relative="1" as="geometry" />
        </mxCell>
        <mxCell id="jbRMt7m1qjUNTzpwiAmh-47" value="Recuperar Senha" style="rounded=0;whiteSpace=wrap;html=1;" parent="jbRMt7m1qjUNTzpwiAmh-7" vertex="1">
          <mxGeometry x="550" y="14" width="120" height="60" as="geometry" />
        </mxCell>
        <mxCell id="jbRMt7m1qjUNTzpwiAmh-53" style="edgeStyle=orthogonalEdgeStyle;rounded=0;orthogonalLoop=1;jettySize=auto;html=1;exitX=1;exitY=0.5;exitDx=0;exitDy=0;entryX=0;entryY=0.5;entryDx=0;entryDy=0;" parent="jbRMt7m1qjUNTzpwiAmh-7" source="jbRMt7m1qjUNTzpwiAmh-48" target="jbRMt7m1qjUNTzpwiAmh-49" edge="1">
          <mxGeometry relative="1" as="geometry" />
        </mxCell>
        <mxCell id="jbRMt7m1qjUNTzpwiAmh-48" value="Preencher dados de recuperação" style="shape=manualInput;whiteSpace=wrap;html=1;" parent="jbRMt7m1qjUNTzpwiAmh-7" vertex="1">
          <mxGeometry x="736" y="-1" width="90" height="90" as="geometry" />
        </mxCell>
        <mxCell id="jbRMt7m1qjUNTzpwiAmh-59" style="edgeStyle=orthogonalEdgeStyle;rounded=0;orthogonalLoop=1;jettySize=auto;html=1;exitX=0.25;exitY=1;exitDx=0;exitDy=0;entryX=0.25;entryY=1;entryDx=0;entryDy=0;" parent="jbRMt7m1qjUNTzpwiAmh-7" source="jbRMt7m1qjUNTzpwiAmh-49" target="jbRMt7m1qjUNTzpwiAmh-10" edge="1">
          <mxGeometry relative="1" as="geometry">
            <Array as="points">
              <mxPoint x="936" y="117" />
              <mxPoint x="63" y="117" />
            </Array>
          </mxGeometry>
        </mxCell>
        <mxCell id="jbRMt7m1qjUNTzpwiAmh-49" value="Gerar nova Senha" style="rounded=0;whiteSpace=wrap;html=1;" parent="jbRMt7m1qjUNTzpwiAmh-7" vertex="1">
          <mxGeometry x="906" y="14" width="120" height="60" as="geometry" />
        </mxCell>
        <mxCell id="jbRMt7m1qjUNTzpwiAmh-60" value="SIM" style="text;html=1;align=center;verticalAlign=middle;resizable=0;points=[];autosize=1;strokeColor=none;fillColor=none;" parent="jbRMt7m1qjUNTzpwiAmh-7" vertex="1">
          <mxGeometry x="498" y="17" width="39" height="26" as="geometry" />
        </mxCell>
        <mxCell id="jbRMt7m1qjUNTzpwiAmh-61" value="SIM" style="text;html=1;align=center;verticalAlign=middle;resizable=0;points=[];autosize=1;strokeColor=none;fillColor=none;" parent="jbRMt7m1qjUNTzpwiAmh-7" vertex="1">
          <mxGeometry x="548" y="408" width="39" height="26" as="geometry" />
        </mxCell>
        <mxCell id="jbRMt7m1qjUNTzpwiAmh-64" value="SIM" style="text;html=1;align=center;verticalAlign=middle;resizable=0;points=[];autosize=1;strokeColor=none;fillColor=none;" parent="jbRMt7m1qjUNTzpwiAmh-7" vertex="1">
          <mxGeometry x="1011" y="306" width="39" height="26" as="geometry" />
        </mxCell>
        <mxCell id="jbRMt7m1qjUNTzpwiAmh-65" value="NAO" style="edgeLabel;html=1;align=center;verticalAlign=middle;resizable=0;points=[];" parent="jbRMt7m1qjUNTzpwiAmh-7" vertex="1" connectable="0">
          <mxGeometry x="662" y="325" as="geometry">
            <mxPoint x="13" y="-5" as="offset" />
          </mxGeometry>
        </mxCell>
        <mxCell id="jbRMt7m1qjUNTzpwiAmh-121" value="NAO" style="edgeLabel;html=1;align=center;verticalAlign=middle;resizable=0;points=[];" parent="jbRMt7m1qjUNTzpwiAmh-7" vertex="1" connectable="0">
          <mxGeometry x="909" y="411" as="geometry">
            <mxPoint x="13" y="-5" as="offset" />
          </mxGeometry>
        </mxCell>
        <mxCell id="jbRMt7m1qjUNTzpwiAmh-133" value="" style="edgeStyle=orthogonalEdgeStyle;rounded=0;orthogonalLoop=1;jettySize=auto;html=1;" parent="jbRMt7m1qjUNTzpwiAmh-7" source="jbRMt7m1qjUNTzpwiAmh-124" target="jbRMt7m1qjUNTzpwiAmh-132" edge="1">
          <mxGeometry relative="1" as="geometry" />
        </mxCell>
        <mxCell id="jbRMt7m1qjUNTzpwiAmh-124" value="Dest.Possui conta?" style="strokeWidth=2;html=1;shape=mxgraph.flowchart.decision;whiteSpace=wrap;" parent="jbRMt7m1qjUNTzpwiAmh-7" vertex="1">
          <mxGeometry x="1132" y="665" width="100" height="100" as="geometry" />
        </mxCell>
        <mxCell id="jbRMt7m1qjUNTzpwiAmh-132" value="Informar Destinatario Inexistente" style="shape=display;whiteSpace=wrap;html=1;" parent="jbRMt7m1qjUNTzpwiAmh-7" vertex="1">
          <mxGeometry x="1267" y="684" width="146" height="61" as="geometry" />
        </mxCell>
        <mxCell id="jbRMt7m1qjUNTzpwiAmh-134" value="NAO" style="text;html=1;align=center;verticalAlign=middle;resizable=0;points=[];autosize=1;strokeColor=none;fillColor=none;" parent="jbRMt7m1qjUNTzpwiAmh-7" vertex="1">
          <mxGeometry x="1224" y="680" width="44" height="26" as="geometry" />
        </mxCell>
        <mxCell id="jbRMt7m1qjUNTzpwiAmh-8" value="Conta" style="swimlane;startSize=20;horizontal=0;html=1;" parent="jbRMt7m1qjUNTzpwiAmh-6" vertex="1">
          <mxGeometry y="813" width="1884" height="272" as="geometry" />
        </mxCell>
        <mxCell id="jbRMt7m1qjUNTzpwiAmh-14" value="SALDO" style="shape=display;whiteSpace=wrap;html=1;" parent="jbRMt7m1qjUNTzpwiAmh-8" vertex="1">
          <mxGeometry x="76" y="52" width="80" height="40" as="geometry" />
        </mxCell>
        <mxCell id="jbRMt7m1qjUNTzpwiAmh-139" value="" style="edgeStyle=orthogonalEdgeStyle;rounded=0;orthogonalLoop=1;jettySize=auto;html=1;" parent="jbRMt7m1qjUNTzpwiAmh-8" source="jbRMt7m1qjUNTzpwiAmh-130" target="jbRMt7m1qjUNTzpwiAmh-137" edge="1">
          <mxGeometry relative="1" as="geometry" />
        </mxCell>
        <mxCell id="jbRMt7m1qjUNTzpwiAmh-130" value="Saldo Suficiente?" style="strokeWidth=2;html=1;shape=mxgraph.flowchart.decision;whiteSpace=wrap;" parent="jbRMt7m1qjUNTzpwiAmh-8" vertex="1">
          <mxGeometry x="390" y="51" width="116" height="108" as="geometry" />
        </mxCell>
        <mxCell id="jbRMt7m1qjUNTzpwiAmh-137" value="Informar Saldo insuficiente" style="shape=display;whiteSpace=wrap;html=1;" parent="jbRMt7m1qjUNTzpwiAmh-8" vertex="1">
          <mxGeometry x="562" y="78" width="121" height="53" as="geometry" />
        </mxCell>
        <mxCell id="jbRMt7m1qjUNTzpwiAmh-140" value="NAO" style="text;html=1;align=center;verticalAlign=middle;resizable=0;points=[];autosize=1;strokeColor=none;fillColor=none;" parent="jbRMt7m1qjUNTzpwiAmh-8" vertex="1">
          <mxGeometry x="514" y="77" width="44" height="26" as="geometry" />
        </mxCell>
        <mxCell id="jbRMt7m1qjUNTzpwiAmh-15" style="edgeStyle=orthogonalEdgeStyle;rounded=0;orthogonalLoop=1;jettySize=auto;html=1;exitX=0.5;exitY=1;exitDx=0;exitDy=0;entryX=0;entryY=0;entryDx=40;entryDy=0;entryPerimeter=0;" parent="jbRMt7m1qjUNTzpwiAmh-6" source="jbRMt7m1qjUNTzpwiAmh-12" target="jbRMt7m1qjUNTzpwiAmh-14" edge="1">
          <mxGeometry relative="1" as="geometry" />
        </mxCell>
        <mxCell id="jbRMt7m1qjUNTzpwiAmh-136" style="edgeStyle=orthogonalEdgeStyle;rounded=0;orthogonalLoop=1;jettySize=auto;html=1;exitX=0;exitY=0;exitDx=76;exitDy=0;exitPerimeter=0;entryX=0;entryY=0;entryDx=60;entryDy=0;entryPerimeter=0;" parent="jbRMt7m1qjUNTzpwiAmh-6" source="jbRMt7m1qjUNTzpwiAmh-132" target="jbRMt7m1qjUNTzpwiAmh-14" edge="1">
          <mxGeometry relative="1" as="geometry" />
        </mxCell>
        <mxCell id="jbRMt7m1qjUNTzpwiAmh-138" style="edgeStyle=orthogonalEdgeStyle;rounded=0;orthogonalLoop=1;jettySize=auto;html=1;exitX=0;exitY=0;exitDx=62.375;exitDy=0;exitPerimeter=0;entryX=1;entryY=0;entryDx=0;entryDy=0;" parent="jbRMt7m1qjUNTzpwiAmh-6" source="jbRMt7m1qjUNTzpwiAmh-137" target="jbRMt7m1qjUNTzpwiAmh-125" edge="1">
          <mxGeometry relative="1" as="geometry">
            <Array as="points">
              <mxPoint x="625" y="845" />
              <mxPoint x="194" y="845" />
              <mxPoint x="194" y="1057" />
            </Array>
          </mxGeometry>
        </mxCell>
        <mxCell id="jbRMt7m1qjUNTzpwiAmh-9" value="Transferência" style="swimlane;startSize=20;horizontal=0;html=1;" parent="jbRMt7m1qjUNTzpwiAmh-6" vertex="1">
          <mxGeometry y="1085" width="1884" height="207" as="geometry" />
        </mxCell>
        <mxCell id="jbRMt7m1qjUNTzpwiAmh-141" value="" style="edgeStyle=orthogonalEdgeStyle;rounded=0;orthogonalLoop=1;jettySize=auto;html=1;" parent="jbRMt7m1qjUNTzpwiAmh-9" source="jbRMt7m1qjUNTzpwiAmh-125" target="jbRMt7m1qjUNTzpwiAmh-127" edge="1">
          <mxGeometry relative="1" as="geometry" />
        </mxCell>
        <mxCell id="jbRMt7m1qjUNTzpwiAmh-125" value="Transferência" style="shape=manualInput;whiteSpace=wrap;html=1;" parent="jbRMt7m1qjUNTzpwiAmh-9" vertex="1">
          <mxGeometry x="71" y="89" width="80" height="80" as="geometry" />
        </mxCell>
        <mxCell id="jbRMt7m1qjUNTzpwiAmh-127" value="Informar Valor" style="html=1;strokeWidth=2;shape=manualInput;whiteSpace=wrap;rounded=1;size=26;arcSize=11;" parent="jbRMt7m1qjUNTzpwiAmh-9" vertex="1">
          <mxGeometry x="220" y="100" width="100" height="60" as="geometry" />
        </mxCell>
        <mxCell id="jbRMt7m1qjUNTzpwiAmh-128" value="Informar Conta&lt;br&gt;Destinatario" style="html=1;strokeWidth=2;shape=manualInput;whiteSpace=wrap;rounded=1;size=26;arcSize=11;" parent="jbRMt7m1qjUNTzpwiAmh-9" vertex="1">
          <mxGeometry x="387" y="89" width="110" height="80" as="geometry" />
        </mxCell>
        <mxCell id="jbRMt7m1qjUNTzpwiAmh-129" value="Realizar&lt;br&gt;Transferência" style="shape=manualInput;whiteSpace=wrap;html=1;" parent="jbRMt7m1qjUNTzpwiAmh-9" vertex="1">
          <mxGeometry x="1147" y="80" width="80" height="80" as="geometry" />
        </mxCell>
        <mxCell id="jbRMt7m1qjUNTzpwiAmh-126" value="Comprovante" style="shape=display;whiteSpace=wrap;html=1;" parent="jbRMt7m1qjUNTzpwiAmh-9" vertex="1">
          <mxGeometry x="1405" y="98" width="108" height="45" as="geometry" />
        </mxCell>
        <mxCell id="jbRMt7m1qjUNTzpwiAmh-123" value="FIM" style="strokeWidth=2;html=1;shape=mxgraph.flowchart.terminator;whiteSpace=wrap;" parent="jbRMt7m1qjUNTzpwiAmh-9" vertex="1">
          <mxGeometry x="1676" y="91" width="100" height="60" as="geometry" />
        </mxCell>
        <mxCell id="jbRMt7m1qjUNTzpwiAmh-147" style="edgeStyle=orthogonalEdgeStyle;rounded=0;orthogonalLoop=1;jettySize=auto;html=1;exitX=1;exitY=0.5;exitDx=0;exitDy=0;entryX=0.091;entryY=0.496;entryDx=0;entryDy=0;entryPerimeter=0;" parent="jbRMt7m1qjUNTzpwiAmh-9" source="jbRMt7m1qjUNTzpwiAmh-129" target="jbRMt7m1qjUNTzpwiAmh-126" edge="1">
          <mxGeometry relative="1" as="geometry" />
        </mxCell>
        <mxCell id="jbRMt7m1qjUNTzpwiAmh-148" style="edgeStyle=orthogonalEdgeStyle;rounded=0;orthogonalLoop=1;jettySize=auto;html=1;exitX=1;exitY=0.5;exitDx=0;exitDy=0;exitPerimeter=0;entryX=0;entryY=0.5;entryDx=0;entryDy=0;entryPerimeter=0;" parent="jbRMt7m1qjUNTzpwiAmh-9" source="jbRMt7m1qjUNTzpwiAmh-126" target="jbRMt7m1qjUNTzpwiAmh-123" edge="1">
          <mxGeometry relative="1" as="geometry" />
        </mxCell>
        <mxCell id="jbRMt7m1qjUNTzpwiAmh-142" style="edgeStyle=orthogonalEdgeStyle;rounded=0;orthogonalLoop=1;jettySize=auto;html=1;exitX=0.75;exitY=0;exitDx=0;exitDy=0;entryX=0;entryY=0.5;entryDx=0;entryDy=0;entryPerimeter=0;" parent="jbRMt7m1qjUNTzpwiAmh-6" source="jbRMt7m1qjUNTzpwiAmh-127" target="jbRMt7m1qjUNTzpwiAmh-130" edge="1">
          <mxGeometry relative="1" as="geometry" />
        </mxCell>
        <mxCell id="jbRMt7m1qjUNTzpwiAmh-143" style="edgeStyle=orthogonalEdgeStyle;rounded=0;orthogonalLoop=1;jettySize=auto;html=1;exitX=0.5;exitY=1;exitDx=0;exitDy=0;exitPerimeter=0;entryX=0.555;entryY=0.129;entryDx=0;entryDy=0;entryPerimeter=0;" parent="jbRMt7m1qjUNTzpwiAmh-6" source="jbRMt7m1qjUNTzpwiAmh-130" target="jbRMt7m1qjUNTzpwiAmh-128" edge="1">
          <mxGeometry relative="1" as="geometry" />
        </mxCell>
        <mxCell id="jbRMt7m1qjUNTzpwiAmh-145" style="edgeStyle=orthogonalEdgeStyle;rounded=0;orthogonalLoop=1;jettySize=auto;html=1;exitX=1;exitY=0.5;exitDx=0;exitDy=0;entryX=0;entryY=0.5;entryDx=0;entryDy=0;entryPerimeter=0;" parent="jbRMt7m1qjUNTzpwiAmh-6" source="jbRMt7m1qjUNTzpwiAmh-128" target="jbRMt7m1qjUNTzpwiAmh-124" edge="1">
          <mxGeometry relative="1" as="geometry" />
        </mxCell>
        <mxCell id="jbRMt7m1qjUNTzpwiAmh-146" style="edgeStyle=orthogonalEdgeStyle;rounded=0;orthogonalLoop=1;jettySize=auto;html=1;exitX=0.5;exitY=1;exitDx=0;exitDy=0;exitPerimeter=0;entryX=0.447;entryY=0.23;entryDx=0;entryDy=0;entryPerimeter=0;" parent="jbRMt7m1qjUNTzpwiAmh-6" source="jbRMt7m1qjUNTzpwiAmh-124" target="jbRMt7m1qjUNTzpwiAmh-129" edge="1">
          <mxGeometry relative="1" as="geometry" />
        </mxCell>
        <mxCell id="HfJv3wx76O7zoJjKhbPw-1" style="edgeStyle=orthogonalEdgeStyle;rounded=0;orthogonalLoop=1;jettySize=auto;html=1;exitX=0;exitY=0;exitDx=40;exitDy=40;exitPerimeter=0;entryX=0.563;entryY=0.213;entryDx=0;entryDy=0;entryPerimeter=0;" edge="1" parent="jbRMt7m1qjUNTzpwiAmh-6" source="jbRMt7m1qjUNTzpwiAmh-14" target="jbRMt7m1qjUNTzpwiAmh-125">
          <mxGeometry relative="1" as="geometry" />
        </mxCell>
        <mxCell id="jbRMt7m1qjUNTzpwiAmh-144" value="SIM" style="text;html=1;align=center;verticalAlign=middle;resizable=0;points=[];autosize=1;strokeColor=none;fillColor=none;" parent="1" vertex="1">
          <mxGeometry x="-3829" y="1159" width="39" height="26" as="geometry" />
        </mxCell>
      </root>
    </mxGraphModel>
  </diagram>
  <diagram id="2N9DKkkyWN-MYaiXPhwc" name="TECNICO">
    <mxGraphModel dx="1238" dy="224" grid="1" gridSize="10" guides="1" tooltips="1" connect="1" arrows="1" fold="1" page="1" pageScale="1" pageWidth="827" pageHeight="1169" math="0" shadow="0">
      <root>
        <mxCell id="0" />
        <mxCell id="1" parent="0" />
        <mxCell id="KiEtXcK_K3DIjFWsdh-a-3" value="" style="edgeStyle=orthogonalEdgeStyle;rounded=0;orthogonalLoop=1;jettySize=auto;html=1;" edge="1" parent="1" source="KiEtXcK_K3DIjFWsdh-a-1" target="KiEtXcK_K3DIjFWsdh-a-2">
          <mxGeometry relative="1" as="geometry" />
        </mxCell>
        <mxCell id="KiEtXcK_K3DIjFWsdh-a-5" value="" style="edgeStyle=orthogonalEdgeStyle;rounded=0;orthogonalLoop=1;jettySize=auto;html=1;" edge="1" parent="1" source="KiEtXcK_K3DIjFWsdh-a-1" target="KiEtXcK_K3DIjFWsdh-a-4">
          <mxGeometry relative="1" as="geometry" />
        </mxCell>
        <mxCell id="KiEtXcK_K3DIjFWsdh-a-1" value="Actor" style="shape=umlActor;verticalLabelPosition=bottom;verticalAlign=top;html=1;outlineConnect=0;" vertex="1" parent="1">
          <mxGeometry x="330" y="20" width="30" height="60" as="geometry" />
        </mxCell>
        <mxCell id="KiEtXcK_K3DIjFWsdh-a-2" value="Acessa Plataforma WEB&lt;br&gt;(Front End: Typescript/Angular)" style="whiteSpace=wrap;html=1;verticalAlign=top;" vertex="1" parent="1">
          <mxGeometry x="170" y="120" width="130" height="70" as="geometry" />
        </mxCell>
        <mxCell id="KiEtXcK_K3DIjFWsdh-a-20" style="edgeStyle=orthogonalEdgeStyle;rounded=0;orthogonalLoop=1;jettySize=auto;html=1;exitX=1;exitY=0.25;exitDx=0;exitDy=0;entryX=0;entryY=0.25;entryDx=0;entryDy=0;" edge="1" parent="1" source="KiEtXcK_K3DIjFWsdh-a-4" target="KiEtXcK_K3DIjFWsdh-a-11">
          <mxGeometry relative="1" as="geometry" />
        </mxCell>
        <mxCell id="KiEtXcK_K3DIjFWsdh-a-4" value="Acessa Plataforma WEB&lt;br&gt;(Front End: Typescript/Angular)" style="whiteSpace=wrap;html=1;verticalAlign=top;" vertex="1" parent="1">
          <mxGeometry x="410" y="120" width="124" height="70" as="geometry" />
        </mxCell>
        <mxCell id="KiEtXcK_K3DIjFWsdh-a-19" style="edgeStyle=orthogonalEdgeStyle;rounded=0;orthogonalLoop=1;jettySize=auto;html=1;exitX=1;exitY=0.75;exitDx=0;exitDy=0;" edge="1" parent="1" source="KiEtXcK_K3DIjFWsdh-a-7" target="KiEtXcK_K3DIjFWsdh-a-2">
          <mxGeometry relative="1" as="geometry" />
        </mxCell>
        <mxCell id="KiEtXcK_K3DIjFWsdh-a-7" value="Envia dados&amp;nbsp;&lt;br&gt;de login para Validar&lt;br&gt;no OAuth" style="shape=trapezoid;perimeter=trapezoidPerimeter;whiteSpace=wrap;html=1;fixedSize=1;verticalAlign=top;" vertex="1" parent="1">
          <mxGeometry x="-100" y="120" width="150" height="60" as="geometry" />
        </mxCell>
        <mxCell id="KiEtXcK_K3DIjFWsdh-a-9" value="Input dados de Login" style="text;html=1;align=center;verticalAlign=middle;resizable=0;points=[];autosize=1;strokeColor=none;fillColor=none;" vertex="1" parent="1">
          <mxGeometry x="30" y="100" width="140" height="30" as="geometry" />
        </mxCell>
        <mxCell id="KiEtXcK_K3DIjFWsdh-a-10" value="Input dados de Login" style="text;html=1;align=center;verticalAlign=middle;resizable=0;points=[];autosize=1;strokeColor=none;fillColor=none;" vertex="1" parent="1">
          <mxGeometry x="550" y="100" width="140" height="30" as="geometry" />
        </mxCell>
        <mxCell id="KiEtXcK_K3DIjFWsdh-a-21" style="edgeStyle=orthogonalEdgeStyle;rounded=0;orthogonalLoop=1;jettySize=auto;html=1;exitX=0;exitY=0.75;exitDx=0;exitDy=0;" edge="1" parent="1" source="KiEtXcK_K3DIjFWsdh-a-11" target="KiEtXcK_K3DIjFWsdh-a-4">
          <mxGeometry relative="1" as="geometry" />
        </mxCell>
        <mxCell id="KiEtXcK_K3DIjFWsdh-a-11" value="Envia dados&amp;nbsp;&lt;br&gt;de login para Validar&lt;br&gt;no OAuth" style="shape=trapezoid;perimeter=trapezoidPerimeter;whiteSpace=wrap;html=1;fixedSize=1;verticalAlign=top;" vertex="1" parent="1">
          <mxGeometry x="670" y="120" width="150" height="60" as="geometry" />
        </mxCell>
        <mxCell id="KiEtXcK_K3DIjFWsdh-a-14" value="" style="swimlane;startSize=0;" vertex="1" parent="1">
          <mxGeometry x="-125" y="70" width="975" height="750" as="geometry" />
        </mxCell>
        <mxCell id="KiEtXcK_K3DIjFWsdh-a-22" value="Retorna Aprovação ou não" style="text;html=1;align=center;verticalAlign=middle;resizable=0;points=[];autosize=1;strokeColor=none;fillColor=none;" vertex="1" parent="KiEtXcK_K3DIjFWsdh-a-14">
          <mxGeometry x="655" y="110" width="170" height="30" as="geometry" />
        </mxCell>
        <mxCell id="KiEtXcK_K3DIjFWsdh-a-23" value="Retorna Aprovação ou não" style="text;html=1;align=center;verticalAlign=middle;resizable=0;points=[];autosize=1;strokeColor=none;fillColor=none;" vertex="1" parent="KiEtXcK_K3DIjFWsdh-a-14">
          <mxGeometry x="145" y="110" width="170" height="30" as="geometry" />
        </mxCell>
        <mxCell id="KiEtXcK_K3DIjFWsdh-a-25" value="BD: H2" style="shape=cylinder3;whiteSpace=wrap;html=1;boundedLbl=1;backgroundOutline=1;size=15;" vertex="1" parent="KiEtXcK_K3DIjFWsdh-a-14">
          <mxGeometry x="435" y="230" width="60" height="80" as="geometry" />
        </mxCell>
        <mxCell id="KiEtXcK_K3DIjFWsdh-a-28" value="Consulta Saldo BD" style="text;html=1;align=center;verticalAlign=middle;resizable=0;points=[];autosize=1;strokeColor=none;fillColor=none;" vertex="1" parent="KiEtXcK_K3DIjFWsdh-a-14">
          <mxGeometry x="355" y="140" width="120" height="30" as="geometry" />
        </mxCell>
        <mxCell id="KiEtXcK_K3DIjFWsdh-a-29" value="BD: valida contas, registrar transferência e dados para comprovante" style="text;html=1;align=center;verticalAlign=middle;resizable=0;points=[];autosize=1;strokeColor=none;fillColor=none;" vertex="1" parent="KiEtXcK_K3DIjFWsdh-a-14">
          <mxGeometry x="505" y="270" width="390" height="30" as="geometry" />
        </mxCell>
        <mxCell id="KiEtXcK_K3DIjFWsdh-a-31" value="Retorna ao ator, para aguardar outro comando" style="text;html=1;align=center;verticalAlign=middle;resizable=0;points=[];autosize=1;strokeColor=none;fillColor=none;" vertex="1" parent="KiEtXcK_K3DIjFWsdh-a-14">
          <mxGeometry x="465" y="170" width="270" height="30" as="geometry" />
        </mxCell>
        <mxCell id="KiEtXcK_K3DIjFWsdh-a-15" value="BackEnd - Java/SpringBoot" style="text;html=1;align=center;verticalAlign=middle;whiteSpace=wrap;rounded=0;" vertex="1" parent="1">
          <mxGeometry x="-120" y="35" width="60" height="30" as="geometry" />
        </mxCell>
        <mxCell id="KiEtXcK_K3DIjFWsdh-a-18" style="edgeStyle=orthogonalEdgeStyle;rounded=0;orthogonalLoop=1;jettySize=auto;html=1;exitX=0;exitY=0.25;exitDx=0;exitDy=0;entryX=0.88;entryY=0.209;entryDx=0;entryDy=0;entryPerimeter=0;" edge="1" parent="1" source="KiEtXcK_K3DIjFWsdh-a-2" target="KiEtXcK_K3DIjFWsdh-a-7">
          <mxGeometry relative="1" as="geometry" />
        </mxCell>
        <mxCell id="KiEtXcK_K3DIjFWsdh-a-26" style="edgeStyle=orthogonalEdgeStyle;rounded=0;orthogonalLoop=1;jettySize=auto;html=1;exitX=0.5;exitY=1;exitDx=0;exitDy=0;entryX=0;entryY=0.5;entryDx=0;entryDy=0;entryPerimeter=0;" edge="1" parent="1" source="KiEtXcK_K3DIjFWsdh-a-2" target="KiEtXcK_K3DIjFWsdh-a-25">
          <mxGeometry relative="1" as="geometry" />
        </mxCell>
        <mxCell id="KiEtXcK_K3DIjFWsdh-a-27" style="edgeStyle=orthogonalEdgeStyle;rounded=0;orthogonalLoop=1;jettySize=auto;html=1;exitX=0.5;exitY=1;exitDx=0;exitDy=0;entryX=0.994;entryY=0.445;entryDx=0;entryDy=0;entryPerimeter=0;" edge="1" parent="1" source="KiEtXcK_K3DIjFWsdh-a-4" target="KiEtXcK_K3DIjFWsdh-a-25">
          <mxGeometry relative="1" as="geometry" />
        </mxCell>
        <mxCell id="KiEtXcK_K3DIjFWsdh-a-30" style="edgeStyle=orthogonalEdgeStyle;rounded=0;orthogonalLoop=1;jettySize=auto;html=1;exitX=0.5;exitY=0;exitDx=0;exitDy=0;exitPerimeter=0;" edge="1" parent="1" source="KiEtXcK_K3DIjFWsdh-a-25" target="KiEtXcK_K3DIjFWsdh-a-1">
          <mxGeometry relative="1" as="geometry" />
        </mxCell>
      </root>
    </mxGraphModel>
  </diagram>
</mxfile>
